%TF.GenerationSoftware,KiCad,Pcbnew,(7.0.0)*%
%TF.CreationDate,2023-04-13T19:08:04-05:00*%
%TF.ProjectId,Cookie_Mantis,436f6f6b-6965-45f4-9d61-6e7469732e6b,rev?*%
%TF.SameCoordinates,Original*%
%TF.FileFunction,Soldermask,Bot*%
%TF.FilePolarity,Negative*%
%FSLAX46Y46*%
G04 Gerber Fmt 4.6, Leading zero omitted, Abs format (unit mm)*
G04 Created by KiCad (PCBNEW (7.0.0)) date 2023-04-13 19:08:04*
%MOMM*%
%LPD*%
G01*
G04 APERTURE LIST*
%ADD10C,0.010000*%
G04 APERTURE END LIST*
D10*
X32968560Y-55480800D02*
X53348560Y-55480800D01*
X53348560Y-55480800D02*
X53348560Y-58640800D01*
X53348560Y-58640800D02*
X32968560Y-58640800D01*
X32968560Y-58640800D02*
X32968560Y-55480800D01*
G36*
X32968560Y-55480800D02*
G01*
X53348560Y-55480800D01*
X53348560Y-58640800D01*
X32968560Y-58640800D01*
X32968560Y-55480800D01*
G37*
X12443560Y-55465800D02*
X32823560Y-55465800D01*
X32823560Y-55465800D02*
X32823560Y-58625800D01*
X32823560Y-58625800D02*
X12443560Y-58625800D01*
X12443560Y-58625800D02*
X12443560Y-55465800D01*
G36*
X12443560Y-55465800D02*
G01*
X32823560Y-55465800D01*
X32823560Y-58625800D01*
X12443560Y-58625800D01*
X12443560Y-55465800D01*
G37*
X12435000Y-32085000D02*
X32815000Y-32085000D01*
X32815000Y-32085000D02*
X32815000Y-35245000D01*
X32815000Y-35245000D02*
X12435000Y-35245000D01*
X12435000Y-35245000D02*
X12435000Y-32085000D01*
G36*
X12435000Y-32085000D02*
G01*
X32815000Y-32085000D01*
X32815000Y-35245000D01*
X12435000Y-35245000D01*
X12435000Y-32085000D01*
G37*
X32953560Y-32085800D02*
X53333560Y-32085800D01*
X53333560Y-32085800D02*
X53333560Y-35245800D01*
X53333560Y-35245800D02*
X32953560Y-35245800D01*
X32953560Y-35245800D02*
X32953560Y-32085800D01*
G36*
X32953560Y-32085800D02*
G01*
X53333560Y-32085800D01*
X53333560Y-35245800D01*
X32953560Y-35245800D01*
X32953560Y-32085800D01*
G37*
M02*
