M48
; DRILL file {KiCad (7.0.0)} date Thu Mar 30 16:55:55 2023
; FORMAT={-:-/ absolute / metric / decimal}
; #@! TF.CreationDate,2023-03-30T16:55:55-05:00
; #@! TF.GenerationSoftware,Kicad,Pcbnew,(7.0.0)
; #@! TF.FileFunction,Plated,1,2,PTH
FMAT,2
METRIC
; #@! TA.AperFunction,Plated,PTH,ViaDrill
T1C0.150
; #@! TA.AperFunction,Plated,PTH,ViaDrill
T2C0.400
%
G90
G05
T1
X18.7Y-23.3
X18.709Y-46.681
X25.6Y-22.2
X25.609Y-45.582
X38.734Y-45.597
X38.929Y-22.071
X46.129Y-22.221
X46.134Y-45.597
T2
X13.771Y-33.51
X13.78Y-56.891
X15.771Y-33.51
X15.78Y-56.891
X17.771Y-33.51
X17.78Y-56.891
X19.771Y-33.51
X19.78Y-56.891
X21.771Y-33.51
X21.78Y-56.891
X23.771Y-33.51
X23.78Y-56.891
X25.771Y-33.51
X25.78Y-56.891
X29.771Y-33.51
X29.78Y-56.891
X31.771Y-33.51
X31.78Y-56.891
X34.29Y-33.511
X34.305Y-56.906
X36.29Y-33.511
X36.305Y-56.906
X38.29Y-33.511
X38.305Y-56.906
X40.29Y-33.511
X40.305Y-56.906
X42.29Y-33.511
X42.305Y-56.906
X44.29Y-33.511
X44.305Y-56.906
X46.29Y-33.511
X46.305Y-56.906
X50.29Y-33.511
X50.305Y-56.906
X52.29Y-33.511
X52.305Y-56.906
T0
M30
