%TF.GenerationSoftware,KiCad,Pcbnew,(7.0.0)*%
%TF.CreationDate,2023-03-30T16:55:44-05:00*%
%TF.ProjectId,Cookie_Mantis,436f6f6b-6965-45f4-9d61-6e7469732e6b,rev?*%
%TF.SameCoordinates,Original*%
%TF.FileFunction,Copper,L1,Top*%
%TF.FilePolarity,Positive*%
%FSLAX46Y46*%
G04 Gerber Fmt 4.6, Leading zero omitted, Abs format (unit mm)*
G04 Created by KiCad (PCBNEW (7.0.0)) date 2023-03-30 16:55:44*
%MOMM*%
%LPD*%
G01*
G04 APERTURE LIST*
%TA.AperFunction,NonConductor*%
%ADD10C,0.010000*%
%TD*%
%TA.AperFunction,NonConductor*%
%ADD11C,0.100000*%
%TD*%
%TA.AperFunction,ViaPad*%
%ADD12C,0.800000*%
%TD*%
%TA.AperFunction,ViaPad*%
%ADD13C,0.250000*%
%TD*%
G04 APERTURE END LIST*
D10*
X39233560Y-37695800D02*
X46233560Y-37695800D01*
X46233560Y-37695800D02*
X46233560Y-38695800D01*
X46233560Y-38695800D02*
X39233560Y-38695800D01*
X39233560Y-38695800D02*
X39233560Y-37695800D01*
G36*
X39233560Y-37695800D02*
G01*
X46233560Y-37695800D01*
X46233560Y-38695800D01*
X39233560Y-38695800D01*
X39233560Y-37695800D01*
G37*
D11*
X27343100Y-32743000D02*
G75*
G03*
X26835040Y-32235000I-508100J-100D01*
G01*
G36*
X47861600Y-34242400D02*
G01*
X33790000Y-33505800D01*
X34044000Y-32947000D01*
X47861600Y-32743800D01*
X47861600Y-34242400D01*
G37*
X47861600Y-34242400D02*
X33790000Y-33505800D01*
X34044000Y-32947000D01*
X47861600Y-32743800D01*
X47861600Y-34242400D01*
G36*
X35329000Y-56189600D02*
G01*
X35583000Y-57662800D01*
X35430600Y-57612000D01*
X33551000Y-57637400D01*
X33551000Y-56164200D01*
X35329000Y-56189600D01*
G37*
X35329000Y-56189600D02*
X35583000Y-57662800D01*
X35430600Y-57612000D01*
X33551000Y-57637400D01*
X33551000Y-56164200D01*
X35329000Y-56189600D01*
G36*
X32042040Y-32311200D02*
G01*
X32296040Y-32412800D01*
X32359540Y-32552500D01*
X32448440Y-32717600D01*
X32448440Y-34241600D01*
X32372240Y-34330500D01*
X32296040Y-34508300D01*
X32169040Y-34635300D01*
X31965840Y-34749600D01*
X29768740Y-34749600D01*
X29730640Y-34698800D01*
X29603640Y-34648000D01*
X29476640Y-34571800D01*
X29375040Y-34419400D01*
X29298840Y-34267000D01*
X29298840Y-32704900D01*
X29375040Y-32628700D01*
X29463940Y-32476300D01*
X29603640Y-32362000D01*
X29806840Y-32235000D01*
X30175140Y-32235000D01*
X30568840Y-32235000D01*
X31953140Y-32235000D01*
X32042040Y-32311200D01*
G37*
X32042040Y-32311200D02*
X32296040Y-32412800D01*
X32359540Y-32552500D01*
X32448440Y-32717600D01*
X32448440Y-34241600D01*
X32372240Y-34330500D01*
X32296040Y-34508300D01*
X32169040Y-34635300D01*
X31965840Y-34749600D01*
X29768740Y-34749600D01*
X29730640Y-34698800D01*
X29603640Y-34648000D01*
X29476640Y-34571800D01*
X29375040Y-34419400D01*
X29298840Y-34267000D01*
X29298840Y-32704900D01*
X29375040Y-32628700D01*
X29463940Y-32476300D01*
X29603640Y-32362000D01*
X29806840Y-32235000D01*
X30175140Y-32235000D01*
X30568840Y-32235000D01*
X31953140Y-32235000D01*
X32042040Y-32311200D01*
X34059000Y-55630800D02*
G75*
G03*
X33551000Y-56138800I0J-508000D01*
G01*
G36*
X47571800Y-55732400D02*
G01*
X47724200Y-55859400D01*
X47800400Y-55986400D01*
X47851200Y-56138800D01*
X45209600Y-56113400D01*
X33551000Y-56138800D01*
X33678000Y-55884800D01*
X33855800Y-55732400D01*
X33982800Y-55681600D01*
X34059000Y-55656200D01*
X47368600Y-55656200D01*
X47571800Y-55732400D01*
G37*
X47571800Y-55732400D02*
X47724200Y-55859400D01*
X47800400Y-55986400D01*
X47851200Y-56138800D01*
X45209600Y-56113400D01*
X33551000Y-56138800D01*
X33678000Y-55884800D01*
X33855800Y-55732400D01*
X33982800Y-55681600D01*
X34059000Y-55656200D01*
X47368600Y-55656200D01*
X47571800Y-55732400D01*
X33536000Y-34242400D02*
G75*
G03*
X34044000Y-34750400I507900J-100D01*
G01*
X32457000Y-56123800D02*
G75*
G03*
X31949000Y-55615800I-508100J-100D01*
G01*
X52982000Y-56138800D02*
G75*
G03*
X52474000Y-55630800I-508100J-100D01*
G01*
X13525440Y-32234940D02*
G75*
G03*
X13017440Y-32743000I60J-508060D01*
G01*
X49832400Y-57637400D02*
G75*
G03*
X50340400Y-58145400I507900J-100D01*
G01*
G36*
X47836200Y-34242400D02*
G01*
X47785400Y-34369400D01*
X47633000Y-34598000D01*
X47353600Y-34725000D01*
X34044000Y-34725000D01*
X33866200Y-34674200D01*
X33688400Y-34521800D01*
X33536000Y-34242400D01*
X34044000Y-33582000D01*
X34958400Y-32642200D01*
X41968800Y-32515200D01*
X47836200Y-34242400D01*
G37*
X47836200Y-34242400D02*
X47785400Y-34369400D01*
X47633000Y-34598000D01*
X47353600Y-34725000D01*
X34044000Y-34725000D01*
X33866200Y-34674200D01*
X33688400Y-34521800D01*
X33536000Y-34242400D01*
X34044000Y-33582000D01*
X34958400Y-32642200D01*
X41968800Y-32515200D01*
X47836200Y-34242400D01*
G36*
X52560600Y-32312000D02*
G01*
X52814600Y-32413600D01*
X52878100Y-32553300D01*
X52967000Y-32718400D01*
X52967000Y-34242400D01*
X52890800Y-34331300D01*
X52814600Y-34509100D01*
X52687600Y-34636100D01*
X52484400Y-34750400D01*
X50287300Y-34750400D01*
X50249200Y-34699600D01*
X50122200Y-34648800D01*
X49995200Y-34572600D01*
X49893600Y-34420200D01*
X49817400Y-34267800D01*
X49817400Y-32705700D01*
X49893600Y-32629500D01*
X49982500Y-32477100D01*
X50122200Y-32362800D01*
X50325400Y-32235800D01*
X50693700Y-32235800D01*
X51087400Y-32235800D01*
X52471700Y-32235800D01*
X52560600Y-32312000D01*
G37*
X52560600Y-32312000D02*
X52814600Y-32413600D01*
X52878100Y-32553300D01*
X52967000Y-32718400D01*
X52967000Y-34242400D01*
X52890800Y-34331300D01*
X52814600Y-34509100D01*
X52687600Y-34636100D01*
X52484400Y-34750400D01*
X50287300Y-34750400D01*
X50249200Y-34699600D01*
X50122200Y-34648800D01*
X49995200Y-34572600D01*
X49893600Y-34420200D01*
X49817400Y-34267800D01*
X49817400Y-32705700D01*
X49893600Y-32629500D01*
X49982500Y-32477100D01*
X50122200Y-32362800D01*
X50325400Y-32235800D01*
X50693700Y-32235800D01*
X51087400Y-32235800D01*
X52471700Y-32235800D01*
X52560600Y-32312000D01*
X47861600Y-32743800D02*
G75*
G03*
X47353600Y-32235800I-508000J0D01*
G01*
D10*
X18708560Y-37680800D02*
X26708560Y-37680800D01*
X26708560Y-37680800D02*
X26708560Y-38680800D01*
X26708560Y-38680800D02*
X18708560Y-38680800D01*
X18708560Y-38680800D02*
X18708560Y-37680800D01*
G36*
X18708560Y-37680800D02*
G01*
X26708560Y-37680800D01*
X26708560Y-38680800D01*
X18708560Y-38680800D01*
X18708560Y-37680800D01*
G37*
D11*
G36*
X27343040Y-34241600D02*
G01*
X13271440Y-33505000D01*
X13525440Y-32946200D01*
X27343040Y-32743000D01*
X27343040Y-34241600D01*
G37*
X27343040Y-34241600D02*
X13271440Y-33505000D01*
X13525440Y-32946200D01*
X27343040Y-32743000D01*
X27343040Y-34241600D01*
D10*
X18200000Y-14800000D02*
X18700000Y-14800000D01*
X18700000Y-14800000D02*
X18700000Y-23800000D01*
X18700000Y-23800000D02*
X18200000Y-23800000D01*
X18200000Y-23800000D02*
X18200000Y-14800000D01*
G36*
X18200000Y-14800000D02*
G01*
X18700000Y-14800000D01*
X18700000Y-23800000D01*
X18200000Y-23800000D01*
X18200000Y-14800000D01*
G37*
D11*
G36*
X47876600Y-57637400D02*
G01*
X33805000Y-56900800D01*
X34059000Y-56342000D01*
X47876600Y-56138800D01*
X47876600Y-57637400D01*
G37*
X47876600Y-57637400D02*
X33805000Y-56900800D01*
X34059000Y-56342000D01*
X47876600Y-56138800D01*
X47876600Y-57637400D01*
D10*
X38718560Y-14800800D02*
X39218560Y-14800800D01*
X39218560Y-14800800D02*
X39218560Y-22300800D01*
X39218560Y-22300800D02*
X38718560Y-22300800D01*
X38718560Y-22300800D02*
X38718560Y-14800800D01*
G36*
X38718560Y-14800800D02*
G01*
X39218560Y-14800800D01*
X39218560Y-22300800D01*
X38718560Y-22300800D01*
X38718560Y-14800800D01*
G37*
D11*
X52459000Y-34750400D02*
G75*
G03*
X52967000Y-34242400I0J508000D01*
G01*
X29815400Y-55615800D02*
G75*
G03*
X29307400Y-56123800I0J-508000D01*
G01*
G36*
X32050600Y-55692000D02*
G01*
X32304600Y-55793600D01*
X32368100Y-55933300D01*
X32457000Y-56098400D01*
X32457000Y-57622400D01*
X32380800Y-57711300D01*
X32304600Y-57889100D01*
X32177600Y-58016100D01*
X31974400Y-58130400D01*
X29777300Y-58130400D01*
X29739200Y-58079600D01*
X29612200Y-58028800D01*
X29485200Y-57952600D01*
X29383600Y-57800200D01*
X29307400Y-57647800D01*
X29307400Y-56085700D01*
X29383600Y-56009500D01*
X29472500Y-55857100D01*
X29612200Y-55742800D01*
X29815400Y-55615800D01*
X30183700Y-55615800D01*
X30577400Y-55615800D01*
X31961700Y-55615800D01*
X32050600Y-55692000D01*
G37*
X32050600Y-55692000D02*
X32304600Y-55793600D01*
X32368100Y-55933300D01*
X32457000Y-56098400D01*
X32457000Y-57622400D01*
X32380800Y-57711300D01*
X32304600Y-57889100D01*
X32177600Y-58016100D01*
X31974400Y-58130400D01*
X29777300Y-58130400D01*
X29739200Y-58079600D01*
X29612200Y-58028800D01*
X29485200Y-57952600D01*
X29383600Y-57800200D01*
X29307400Y-57647800D01*
X29307400Y-56085700D01*
X29383600Y-56009500D01*
X29472500Y-55857100D01*
X29612200Y-55742800D01*
X29815400Y-55615800D01*
X30183700Y-55615800D01*
X30577400Y-55615800D01*
X31961700Y-55615800D01*
X32050600Y-55692000D01*
X34044000Y-32235800D02*
G75*
G03*
X33536000Y-32743800I0J-508000D01*
G01*
G36*
X52575600Y-55707000D02*
G01*
X52829600Y-55808600D01*
X52893100Y-55948300D01*
X52982000Y-56113400D01*
X52982000Y-57637400D01*
X52905800Y-57726300D01*
X52829600Y-57904100D01*
X52702600Y-58031100D01*
X52499400Y-58145400D01*
X50302300Y-58145400D01*
X50264200Y-58094600D01*
X50137200Y-58043800D01*
X50010200Y-57967600D01*
X49908600Y-57815200D01*
X49832400Y-57662800D01*
X49832400Y-56100700D01*
X49908600Y-56024500D01*
X49997500Y-55872100D01*
X50137200Y-55757800D01*
X50340400Y-55630800D01*
X50708700Y-55630800D01*
X51102400Y-55630800D01*
X52486700Y-55630800D01*
X52575600Y-55707000D01*
G37*
X52575600Y-55707000D02*
X52829600Y-55808600D01*
X52893100Y-55948300D01*
X52982000Y-56113400D01*
X52982000Y-57637400D01*
X52905800Y-57726300D01*
X52829600Y-57904100D01*
X52702600Y-58031100D01*
X52499400Y-58145400D01*
X50302300Y-58145400D01*
X50264200Y-58094600D01*
X50137200Y-58043800D01*
X50010200Y-57967600D01*
X49908600Y-57815200D01*
X49832400Y-57662800D01*
X49832400Y-56100700D01*
X49908600Y-56024500D01*
X49997500Y-55872100D01*
X50137200Y-55757800D01*
X50340400Y-55630800D01*
X50708700Y-55630800D01*
X51102400Y-55630800D01*
X52486700Y-55630800D01*
X52575600Y-55707000D01*
X13017500Y-34241600D02*
G75*
G03*
X13525440Y-34749600I507900J-100D01*
G01*
D10*
X40218560Y-16300800D02*
X46218560Y-16300800D01*
X46218560Y-16300800D02*
X46218560Y-22300800D01*
X46218560Y-22300800D02*
X40218560Y-22300800D01*
X40218560Y-22300800D02*
X40218560Y-16300800D01*
G36*
X40218560Y-16300800D02*
G01*
X46218560Y-16300800D01*
X46218560Y-22300800D01*
X40218560Y-22300800D01*
X40218560Y-16300800D01*
G37*
D11*
G36*
X27326200Y-57622400D02*
G01*
X27275400Y-57749400D01*
X27123000Y-57978000D01*
X26843600Y-58105000D01*
X13534000Y-58105000D01*
X13356200Y-58054200D01*
X13178400Y-57901800D01*
X13026000Y-57622400D01*
X13534000Y-56962000D01*
X14448400Y-56022200D01*
X21458800Y-55895200D01*
X27326200Y-57622400D01*
G37*
X27326200Y-57622400D02*
X27275400Y-57749400D01*
X27123000Y-57978000D01*
X26843600Y-58105000D01*
X13534000Y-58105000D01*
X13356200Y-58054200D01*
X13178400Y-57901800D01*
X13026000Y-57622400D01*
X13534000Y-56962000D01*
X14448400Y-56022200D01*
X21458800Y-55895200D01*
X27326200Y-57622400D01*
X26843600Y-58130400D02*
G75*
G03*
X27351600Y-57622400I0J508000D01*
G01*
G36*
X27317640Y-34241600D02*
G01*
X27266840Y-34368600D01*
X27114440Y-34597200D01*
X26835040Y-34724200D01*
X13525440Y-34724200D01*
X13347640Y-34673400D01*
X13169840Y-34521000D01*
X13017440Y-34241600D01*
X13525440Y-33581200D01*
X14439840Y-32641400D01*
X21450240Y-32514400D01*
X27317640Y-34241600D01*
G37*
X27317640Y-34241600D02*
X27266840Y-34368600D01*
X27114440Y-34597200D01*
X26835040Y-34724200D01*
X13525440Y-34724200D01*
X13347640Y-34673400D01*
X13169840Y-34521000D01*
X13017440Y-34241600D01*
X13525440Y-33581200D01*
X14439840Y-32641400D01*
X21450240Y-32514400D01*
X27317640Y-34241600D01*
G36*
X14804000Y-56174600D02*
G01*
X15058000Y-57647800D01*
X14905600Y-57597000D01*
X13026000Y-57622400D01*
X13026000Y-56149200D01*
X14804000Y-56174600D01*
G37*
X14804000Y-56174600D02*
X15058000Y-57647800D01*
X14905600Y-57597000D01*
X13026000Y-57622400D01*
X13026000Y-56149200D01*
X14804000Y-56174600D01*
G36*
X27351600Y-57622400D02*
G01*
X13280000Y-56885800D01*
X13534000Y-56327000D01*
X27351600Y-56123800D01*
X27351600Y-57622400D01*
G37*
X27351600Y-57622400D02*
X13280000Y-56885800D01*
X13534000Y-56327000D01*
X27351600Y-56123800D01*
X27351600Y-57622400D01*
D10*
X18700000Y-23300000D02*
X27200000Y-23300000D01*
X27200000Y-23300000D02*
X27200000Y-23800000D01*
X27200000Y-23800000D02*
X18700000Y-23800000D01*
X18700000Y-23800000D02*
X18700000Y-23300000D01*
G36*
X18700000Y-23300000D02*
G01*
X27200000Y-23300000D01*
X27200000Y-23800000D01*
X18700000Y-23800000D01*
X18700000Y-23300000D01*
G37*
D11*
G36*
X27038240Y-32336600D02*
G01*
X27190640Y-32463600D01*
X27266840Y-32590600D01*
X27317640Y-32743000D01*
X24676040Y-32717600D01*
X13017440Y-32743000D01*
X13144440Y-32489000D01*
X13322240Y-32336600D01*
X13449240Y-32285800D01*
X13525440Y-32260400D01*
X26835040Y-32260400D01*
X27038240Y-32336600D01*
G37*
X27038240Y-32336600D02*
X27190640Y-32463600D01*
X27266840Y-32590600D01*
X27317640Y-32743000D01*
X24676040Y-32717600D01*
X13017440Y-32743000D01*
X13144440Y-32489000D01*
X13322240Y-32336600D01*
X13449240Y-32285800D01*
X13525440Y-32260400D01*
X26835040Y-32260400D01*
X27038240Y-32336600D01*
G36*
X47851200Y-57637400D02*
G01*
X47800400Y-57764400D01*
X47648000Y-57993000D01*
X47368600Y-58120000D01*
X34059000Y-58120000D01*
X33881200Y-58069200D01*
X33703400Y-57916800D01*
X33551000Y-57637400D01*
X34059000Y-56977000D01*
X34973400Y-56037200D01*
X41983800Y-55910200D01*
X47851200Y-57637400D01*
G37*
X47851200Y-57637400D02*
X47800400Y-57764400D01*
X47648000Y-57993000D01*
X47368600Y-58120000D01*
X34059000Y-58120000D01*
X33881200Y-58069200D01*
X33703400Y-57916800D01*
X33551000Y-57637400D01*
X34059000Y-56977000D01*
X34973400Y-56037200D01*
X41983800Y-55910200D01*
X47851200Y-57637400D01*
D10*
X26708560Y-37680800D02*
X27708560Y-37680800D01*
X27708560Y-37680800D02*
X27708560Y-46680800D01*
X27708560Y-46680800D02*
X26708560Y-46680800D01*
X26708560Y-46680800D02*
X26708560Y-37680800D01*
G36*
X26708560Y-37680800D02*
G01*
X27708560Y-37680800D01*
X27708560Y-46680800D01*
X26708560Y-46680800D01*
X26708560Y-37680800D01*
G37*
D11*
X50340400Y-55630800D02*
G75*
G03*
X49832400Y-56138800I0J-508000D01*
G01*
D10*
X18708560Y-46680800D02*
X27708560Y-46680800D01*
X27708560Y-46680800D02*
X27708560Y-47680800D01*
X27708560Y-47680800D02*
X18708560Y-47680800D01*
X18708560Y-47680800D02*
X18708560Y-46680800D01*
G36*
X18708560Y-46680800D02*
G01*
X27708560Y-46680800D01*
X27708560Y-47680800D01*
X18708560Y-47680800D01*
X18708560Y-46680800D01*
G37*
D11*
G36*
X14795440Y-32793800D02*
G01*
X15049440Y-34267000D01*
X14897040Y-34216200D01*
X13017440Y-34241600D01*
X13017440Y-32768400D01*
X14795440Y-32793800D01*
G37*
X14795440Y-32793800D02*
X15049440Y-34267000D01*
X14897040Y-34216200D01*
X13017440Y-34241600D01*
X13017440Y-32768400D01*
X14795440Y-32793800D01*
D10*
X38233560Y-37695800D02*
X39233560Y-37695800D01*
X39233560Y-37695800D02*
X39233560Y-45695800D01*
X39233560Y-45695800D02*
X38233560Y-45695800D01*
X38233560Y-45695800D02*
X38233560Y-37695800D01*
G36*
X38233560Y-37695800D02*
G01*
X39233560Y-37695800D01*
X39233560Y-45695800D01*
X38233560Y-45695800D01*
X38233560Y-37695800D01*
G37*
D11*
X31940440Y-34749540D02*
G75*
G03*
X32448440Y-34241600I60J507940D01*
G01*
X33551000Y-57637400D02*
G75*
G03*
X34059000Y-58145400I507900J-100D01*
G01*
X47876600Y-56138800D02*
G75*
G03*
X47368600Y-55630800I-508100J-100D01*
G01*
X13534000Y-55615800D02*
G75*
G03*
X13026000Y-56123800I0J-508000D01*
G01*
X29806840Y-32234940D02*
G75*
G03*
X29298840Y-32743000I60J-508060D01*
G01*
G36*
X47556800Y-32337400D02*
G01*
X47709200Y-32464400D01*
X47785400Y-32591400D01*
X47836200Y-32743800D01*
X45194600Y-32718400D01*
X33536000Y-32743800D01*
X33663000Y-32489800D01*
X33840800Y-32337400D01*
X33967800Y-32286600D01*
X34044000Y-32261200D01*
X47353600Y-32261200D01*
X47556800Y-32337400D01*
G37*
X47556800Y-32337400D02*
X47709200Y-32464400D01*
X47785400Y-32591400D01*
X47836200Y-32743800D01*
X45194600Y-32718400D01*
X33536000Y-32743800D01*
X33663000Y-32489800D01*
X33840800Y-32337400D01*
X33967800Y-32286600D01*
X34044000Y-32261200D01*
X47353600Y-32261200D01*
X47556800Y-32337400D01*
X47353600Y-34750400D02*
G75*
G03*
X47861600Y-34242400I0J508000D01*
G01*
G36*
X26818200Y-58130400D02*
G01*
X13534000Y-58130400D01*
X13534000Y-55615800D01*
X26818200Y-55615800D01*
X26818200Y-58130400D01*
G37*
X26818200Y-58130400D02*
X13534000Y-58130400D01*
X13534000Y-55615800D01*
X26818200Y-55615800D01*
X26818200Y-58130400D01*
G36*
X47343200Y-58145400D02*
G01*
X34059000Y-58145400D01*
X34059000Y-55630800D01*
X47343200Y-55630800D01*
X47343200Y-58145400D01*
G37*
X47343200Y-58145400D02*
X34059000Y-58145400D01*
X34059000Y-55630800D01*
X47343200Y-55630800D01*
X47343200Y-58145400D01*
X13026000Y-57622400D02*
G75*
G03*
X13534000Y-58130400I507900J-100D01*
G01*
X27351600Y-56123800D02*
G75*
G03*
X26843600Y-55615800I-508100J-100D01*
G01*
X49817400Y-34242400D02*
G75*
G03*
X50325400Y-34750400I508000J0D01*
G01*
X29307400Y-57622400D02*
G75*
G03*
X29815400Y-58130400I507900J-100D01*
G01*
X31949000Y-58130400D02*
G75*
G03*
X32457000Y-57622400I0J508000D01*
G01*
X29298900Y-34241600D02*
G75*
G03*
X29806840Y-34749600I507900J-100D01*
G01*
X32448500Y-32743000D02*
G75*
G03*
X31940440Y-32235000I-508100J-100D01*
G01*
D10*
X19700000Y-16300000D02*
X25700000Y-16300000D01*
X25700000Y-16300000D02*
X25700000Y-22300000D01*
X25700000Y-22300000D02*
X19700000Y-22300000D01*
X19700000Y-22300000D02*
X19700000Y-16300000D01*
G36*
X19700000Y-16300000D02*
G01*
X25700000Y-16300000D01*
X25700000Y-22300000D01*
X19700000Y-22300000D01*
X19700000Y-16300000D01*
G37*
D11*
X52474000Y-58145400D02*
G75*
G03*
X52982000Y-57637400I0J508000D01*
G01*
X50325400Y-32235800D02*
G75*
G03*
X49817400Y-32743800I0J-508000D01*
G01*
D10*
X26700000Y-14800000D02*
X27200000Y-14800000D01*
X27200000Y-14800000D02*
X27200000Y-23300000D01*
X27200000Y-23300000D02*
X26700000Y-23300000D01*
X26700000Y-23300000D02*
X26700000Y-14800000D01*
G36*
X26700000Y-14800000D02*
G01*
X27200000Y-14800000D01*
X27200000Y-23300000D01*
X26700000Y-23300000D01*
X26700000Y-14800000D01*
G37*
D11*
X47368600Y-58145400D02*
G75*
G03*
X47876600Y-57637400I0J508000D01*
G01*
D10*
X18700000Y-14800000D02*
X26700000Y-14800000D01*
X26700000Y-14800000D02*
X26700000Y-15300000D01*
X26700000Y-15300000D02*
X18700000Y-15300000D01*
X18700000Y-15300000D02*
X18700000Y-14800000D01*
G36*
X18700000Y-14800000D02*
G01*
X26700000Y-14800000D01*
X26700000Y-15300000D01*
X18700000Y-15300000D01*
X18700000Y-14800000D01*
G37*
D11*
G36*
X35314000Y-32794600D02*
G01*
X35568000Y-34267800D01*
X35415600Y-34217000D01*
X33536000Y-34242400D01*
X33536000Y-32769200D01*
X35314000Y-32794600D01*
G37*
X35314000Y-32794600D02*
X35568000Y-34267800D01*
X35415600Y-34217000D01*
X33536000Y-34242400D01*
X33536000Y-32769200D01*
X35314000Y-32794600D01*
D10*
X17708560Y-37680800D02*
X18708560Y-37680800D01*
X18708560Y-37680800D02*
X18708560Y-47680800D01*
X18708560Y-47680800D02*
X17708560Y-47680800D01*
X17708560Y-47680800D02*
X17708560Y-37680800D01*
G36*
X17708560Y-37680800D02*
G01*
X18708560Y-37680800D01*
X18708560Y-47680800D01*
X17708560Y-47680800D01*
X17708560Y-37680800D01*
G37*
D11*
G36*
X27046800Y-55717400D02*
G01*
X27199200Y-55844400D01*
X27275400Y-55971400D01*
X27326200Y-56123800D01*
X24684600Y-56098400D01*
X13026000Y-56123800D01*
X13153000Y-55869800D01*
X13330800Y-55717400D01*
X13457800Y-55666600D01*
X13534000Y-55641200D01*
X26843600Y-55641200D01*
X27046800Y-55717400D01*
G37*
X27046800Y-55717400D02*
X27199200Y-55844400D01*
X27275400Y-55971400D01*
X27326200Y-56123800D01*
X24684600Y-56098400D01*
X13026000Y-56123800D01*
X13153000Y-55869800D01*
X13330800Y-55717400D01*
X13457800Y-55666600D01*
X13534000Y-55641200D01*
X26843600Y-55641200D01*
X27046800Y-55717400D01*
G36*
X47328200Y-34750400D02*
G01*
X34044000Y-34750400D01*
X34044000Y-32235800D01*
X47328200Y-32235800D01*
X47328200Y-34750400D01*
G37*
X47328200Y-34750400D02*
X34044000Y-34750400D01*
X34044000Y-32235800D01*
X47328200Y-32235800D01*
X47328200Y-34750400D01*
D10*
X19708560Y-39680800D02*
X25708560Y-39680800D01*
X25708560Y-39680800D02*
X25708560Y-45680800D01*
X25708560Y-45680800D02*
X19708560Y-45680800D01*
X19708560Y-45680800D02*
X19708560Y-39680800D01*
G36*
X19708560Y-39680800D02*
G01*
X25708560Y-39680800D01*
X25708560Y-45680800D01*
X19708560Y-45680800D01*
X19708560Y-39680800D01*
G37*
X39218560Y-14800800D02*
X46218560Y-14800800D01*
X46218560Y-14800800D02*
X46218560Y-15300800D01*
X46218560Y-15300800D02*
X39218560Y-15300800D01*
X39218560Y-15300800D02*
X39218560Y-14800800D01*
G36*
X39218560Y-14800800D02*
G01*
X46218560Y-14800800D01*
X46218560Y-15300800D01*
X39218560Y-15300800D01*
X39218560Y-14800800D01*
G37*
D11*
X52967000Y-32743800D02*
G75*
G03*
X52459000Y-32235800I-508000J0D01*
G01*
D10*
X40233560Y-39695800D02*
X46233560Y-39695800D01*
X46233560Y-39695800D02*
X46233560Y-45695800D01*
X46233560Y-45695800D02*
X40233560Y-45695800D01*
X40233560Y-45695800D02*
X40233560Y-39695800D01*
G36*
X40233560Y-39695800D02*
G01*
X46233560Y-39695800D01*
X46233560Y-45695800D01*
X40233560Y-45695800D01*
X40233560Y-39695800D01*
G37*
D11*
X26835040Y-34749540D02*
G75*
G03*
X27343040Y-34241600I60J507940D01*
G01*
G36*
X26809640Y-34749600D02*
G01*
X13525440Y-34749600D01*
X13525440Y-32235000D01*
X26809640Y-32235000D01*
X26809640Y-34749600D01*
G37*
X26809640Y-34749600D02*
X13525440Y-34749600D01*
X13525440Y-32235000D01*
X26809640Y-32235000D01*
X26809640Y-34749600D01*
D12*
%TO.N,*%
X40289600Y-33510800D03*
X21779600Y-56890800D03*
X23779600Y-56890800D03*
X34289600Y-33510800D03*
X38289600Y-33510800D03*
D13*
X38733560Y-45596784D03*
D12*
X46289600Y-33510800D03*
X46304600Y-56905800D03*
X31771040Y-33510000D03*
X25779600Y-56890800D03*
X25771040Y-33510000D03*
X44304600Y-56905800D03*
X38304600Y-56905800D03*
X44289600Y-33510800D03*
X36304600Y-56905800D03*
X31779600Y-56890800D03*
X15771040Y-33510000D03*
X13771040Y-33510000D03*
D13*
X46133560Y-45596784D03*
D12*
X23771040Y-33510000D03*
X21771040Y-33510000D03*
X42304600Y-56905800D03*
X29779600Y-56890800D03*
X50304600Y-56905800D03*
X19771040Y-33510000D03*
D13*
X38928560Y-22070800D03*
D12*
X52304600Y-56905800D03*
X36289600Y-33510800D03*
X19779600Y-56890800D03*
X50289600Y-33510800D03*
X29771040Y-33510000D03*
X42289600Y-33510800D03*
X34304600Y-56905800D03*
X40304600Y-56905800D03*
D13*
X46128560Y-22220800D03*
D12*
X52289600Y-33510800D03*
D13*
X18700000Y-23300000D03*
X25608560Y-45581784D03*
D12*
X15779600Y-56890800D03*
D13*
X25600000Y-22200000D03*
D12*
X13779600Y-56890800D03*
X17771040Y-33510000D03*
X17779600Y-56890800D03*
D13*
X18708560Y-46680800D03*
%TD*%
M02*
