%TF.GenerationSoftware,KiCad,Pcbnew,(7.0.0)*%
%TF.CreationDate,2023-03-30T16:55:44-05:00*%
%TF.ProjectId,Cookie_Mantis,436f6f6b-6965-45f4-9d61-6e7469732e6b,rev?*%
%TF.SameCoordinates,Original*%
%TF.FileFunction,Legend,Bot*%
%TF.FilePolarity,Positive*%
%FSLAX46Y46*%
G04 Gerber Fmt 4.6, Leading zero omitted, Abs format (unit mm)*
G04 Created by KiCad (PCBNEW (7.0.0)) date 2023-03-30 16:55:44*
%MOMM*%
%LPD*%
G01*
G04 APERTURE LIST*
%ADD10C,0.075000*%
G04 APERTURE END LIST*
D10*
X49626417Y-36758141D02*
X49612131Y-36743855D01*
X49612131Y-36743855D02*
X49569274Y-36729569D01*
X49569274Y-36729569D02*
X49540702Y-36729569D01*
X49540702Y-36729569D02*
X49497845Y-36743855D01*
X49497845Y-36743855D02*
X49469274Y-36772426D01*
X49469274Y-36772426D02*
X49454988Y-36800998D01*
X49454988Y-36800998D02*
X49440702Y-36858141D01*
X49440702Y-36858141D02*
X49440702Y-36900998D01*
X49440702Y-36900998D02*
X49454988Y-36958141D01*
X49454988Y-36958141D02*
X49469274Y-36986712D01*
X49469274Y-36986712D02*
X49497845Y-37015284D01*
X49497845Y-37015284D02*
X49540702Y-37029569D01*
X49540702Y-37029569D02*
X49569274Y-37029569D01*
X49569274Y-37029569D02*
X49612131Y-37015284D01*
X49612131Y-37015284D02*
X49626417Y-37000998D01*
X49797845Y-36729569D02*
X49769274Y-36743855D01*
X49769274Y-36743855D02*
X49754988Y-36758141D01*
X49754988Y-36758141D02*
X49740702Y-36786712D01*
X49740702Y-36786712D02*
X49740702Y-36872426D01*
X49740702Y-36872426D02*
X49754988Y-36900998D01*
X49754988Y-36900998D02*
X49769274Y-36915284D01*
X49769274Y-36915284D02*
X49797845Y-36929569D01*
X49797845Y-36929569D02*
X49840702Y-36929569D01*
X49840702Y-36929569D02*
X49869274Y-36915284D01*
X49869274Y-36915284D02*
X49883560Y-36900998D01*
X49883560Y-36900998D02*
X49897845Y-36872426D01*
X49897845Y-36872426D02*
X49897845Y-36786712D01*
X49897845Y-36786712D02*
X49883560Y-36758141D01*
X49883560Y-36758141D02*
X49869274Y-36743855D01*
X49869274Y-36743855D02*
X49840702Y-36729569D01*
X49840702Y-36729569D02*
X49797845Y-36729569D01*
X50069274Y-36729569D02*
X50040703Y-36743855D01*
X50040703Y-36743855D02*
X50026417Y-36758141D01*
X50026417Y-36758141D02*
X50012131Y-36786712D01*
X50012131Y-36786712D02*
X50012131Y-36872426D01*
X50012131Y-36872426D02*
X50026417Y-36900998D01*
X50026417Y-36900998D02*
X50040703Y-36915284D01*
X50040703Y-36915284D02*
X50069274Y-36929569D01*
X50069274Y-36929569D02*
X50112131Y-36929569D01*
X50112131Y-36929569D02*
X50140703Y-36915284D01*
X50140703Y-36915284D02*
X50154989Y-36900998D01*
X50154989Y-36900998D02*
X50169274Y-36872426D01*
X50169274Y-36872426D02*
X50169274Y-36786712D01*
X50169274Y-36786712D02*
X50154989Y-36758141D01*
X50154989Y-36758141D02*
X50140703Y-36743855D01*
X50140703Y-36743855D02*
X50112131Y-36729569D01*
X50112131Y-36729569D02*
X50069274Y-36729569D01*
X50297846Y-36729569D02*
X50297846Y-37029569D01*
X50326418Y-36843855D02*
X50412132Y-36729569D01*
X50412132Y-36929569D02*
X50297846Y-36815284D01*
X50540703Y-36729569D02*
X50540703Y-36929569D01*
X50540703Y-37029569D02*
X50526417Y-37015284D01*
X50526417Y-37015284D02*
X50540703Y-37000998D01*
X50540703Y-37000998D02*
X50554989Y-37015284D01*
X50554989Y-37015284D02*
X50540703Y-37029569D01*
X50540703Y-37029569D02*
X50540703Y-37000998D01*
X50797846Y-36743855D02*
X50769274Y-36729569D01*
X50769274Y-36729569D02*
X50712132Y-36729569D01*
X50712132Y-36729569D02*
X50683560Y-36743855D01*
X50683560Y-36743855D02*
X50669274Y-36772426D01*
X50669274Y-36772426D02*
X50669274Y-36886712D01*
X50669274Y-36886712D02*
X50683560Y-36915284D01*
X50683560Y-36915284D02*
X50712132Y-36929569D01*
X50712132Y-36929569D02*
X50769274Y-36929569D01*
X50769274Y-36929569D02*
X50797846Y-36915284D01*
X50797846Y-36915284D02*
X50812132Y-36886712D01*
X50812132Y-36886712D02*
X50812132Y-36858141D01*
X50812132Y-36858141D02*
X50669274Y-36829569D01*
X50869275Y-36700998D02*
X51097846Y-36700998D01*
X51326417Y-36729569D02*
X51154988Y-36729569D01*
X51240703Y-36729569D02*
X51240703Y-37029569D01*
X51240703Y-37029569D02*
X51212131Y-36986712D01*
X51212131Y-36986712D02*
X51183560Y-36958141D01*
X51183560Y-36958141D02*
X51154988Y-36943855D01*
X51454988Y-36758141D02*
X51469274Y-36743855D01*
X51469274Y-36743855D02*
X51454988Y-36729569D01*
X51454988Y-36729569D02*
X51440702Y-36743855D01*
X51440702Y-36743855D02*
X51454988Y-36758141D01*
X51454988Y-36758141D02*
X51454988Y-36729569D01*
X51654988Y-37029569D02*
X51683559Y-37029569D01*
X51683559Y-37029569D02*
X51712131Y-37015284D01*
X51712131Y-37015284D02*
X51726417Y-37000998D01*
X51726417Y-37000998D02*
X51740702Y-36972426D01*
X51740702Y-36972426D02*
X51754988Y-36915284D01*
X51754988Y-36915284D02*
X51754988Y-36843855D01*
X51754988Y-36843855D02*
X51740702Y-36786712D01*
X51740702Y-36786712D02*
X51726417Y-36758141D01*
X51726417Y-36758141D02*
X51712131Y-36743855D01*
X51712131Y-36743855D02*
X51683559Y-36729569D01*
X51683559Y-36729569D02*
X51654988Y-36729569D01*
X51654988Y-36729569D02*
X51626417Y-36743855D01*
X51626417Y-36743855D02*
X51612131Y-36758141D01*
X51612131Y-36758141D02*
X51597845Y-36786712D01*
X51597845Y-36786712D02*
X51583559Y-36843855D01*
X51583559Y-36843855D02*
X51583559Y-36915284D01*
X51583559Y-36915284D02*
X51597845Y-36972426D01*
X51597845Y-36972426D02*
X51612131Y-37000998D01*
X51612131Y-37000998D02*
X51626417Y-37015284D01*
X51626417Y-37015284D02*
X51654988Y-37029569D01*
X52063559Y-36729569D02*
X52063559Y-36929569D01*
X52063559Y-36900998D02*
X52077845Y-36915284D01*
X52077845Y-36915284D02*
X52106416Y-36929569D01*
X52106416Y-36929569D02*
X52149273Y-36929569D01*
X52149273Y-36929569D02*
X52177845Y-36915284D01*
X52177845Y-36915284D02*
X52192131Y-36886712D01*
X52192131Y-36886712D02*
X52192131Y-36729569D01*
X52192131Y-36886712D02*
X52206416Y-36915284D01*
X52206416Y-36915284D02*
X52234988Y-36929569D01*
X52234988Y-36929569D02*
X52277845Y-36929569D01*
X52277845Y-36929569D02*
X52306416Y-36915284D01*
X52306416Y-36915284D02*
X52320702Y-36886712D01*
X52320702Y-36886712D02*
X52320702Y-36729569D01*
X52463559Y-36729569D02*
X52463559Y-36929569D01*
X52463559Y-36900998D02*
X52477845Y-36915284D01*
X52477845Y-36915284D02*
X52506416Y-36929569D01*
X52506416Y-36929569D02*
X52549273Y-36929569D01*
X52549273Y-36929569D02*
X52577845Y-36915284D01*
X52577845Y-36915284D02*
X52592131Y-36886712D01*
X52592131Y-36886712D02*
X52592131Y-36729569D01*
X52592131Y-36886712D02*
X52606416Y-36915284D01*
X52606416Y-36915284D02*
X52634988Y-36929569D01*
X52634988Y-36929569D02*
X52677845Y-36929569D01*
X52677845Y-36929569D02*
X52706416Y-36915284D01*
X52706416Y-36915284D02*
X52720702Y-36886712D01*
X52720702Y-36886712D02*
X52720702Y-36729569D01*
X49454988Y-36543569D02*
X49454988Y-36300712D01*
X49454988Y-36300712D02*
X49469274Y-36272141D01*
X49469274Y-36272141D02*
X49483560Y-36257855D01*
X49483560Y-36257855D02*
X49512131Y-36243569D01*
X49512131Y-36243569D02*
X49569274Y-36243569D01*
X49569274Y-36243569D02*
X49597845Y-36257855D01*
X49597845Y-36257855D02*
X49612131Y-36272141D01*
X49612131Y-36272141D02*
X49626417Y-36300712D01*
X49626417Y-36300712D02*
X49626417Y-36543569D01*
X49726417Y-36543569D02*
X49897846Y-36543569D01*
X49812131Y-36243569D02*
X49812131Y-36543569D01*
X49983559Y-36329284D02*
X50126417Y-36329284D01*
X49954988Y-36243569D02*
X50054988Y-36543569D01*
X50054988Y-36543569D02*
X50154988Y-36243569D01*
X50469274Y-36557855D02*
X50212131Y-36172141D01*
X50626417Y-36543569D02*
X50683560Y-36543569D01*
X50683560Y-36543569D02*
X50712131Y-36529284D01*
X50712131Y-36529284D02*
X50740703Y-36500712D01*
X50740703Y-36500712D02*
X50754988Y-36443569D01*
X50754988Y-36443569D02*
X50754988Y-36343569D01*
X50754988Y-36343569D02*
X50740703Y-36286426D01*
X50740703Y-36286426D02*
X50712131Y-36257855D01*
X50712131Y-36257855D02*
X50683560Y-36243569D01*
X50683560Y-36243569D02*
X50626417Y-36243569D01*
X50626417Y-36243569D02*
X50597846Y-36257855D01*
X50597846Y-36257855D02*
X50569274Y-36286426D01*
X50569274Y-36286426D02*
X50554988Y-36343569D01*
X50554988Y-36343569D02*
X50554988Y-36443569D01*
X50554988Y-36443569D02*
X50569274Y-36500712D01*
X50569274Y-36500712D02*
X50597846Y-36529284D01*
X50597846Y-36529284D02*
X50626417Y-36543569D01*
X51054989Y-36243569D02*
X50954989Y-36386426D01*
X50883560Y-36243569D02*
X50883560Y-36543569D01*
X50883560Y-36543569D02*
X50997846Y-36543569D01*
X50997846Y-36543569D02*
X51026417Y-36529284D01*
X51026417Y-36529284D02*
X51040703Y-36514998D01*
X51040703Y-36514998D02*
X51054989Y-36486426D01*
X51054989Y-36486426D02*
X51054989Y-36443569D01*
X51054989Y-36443569D02*
X51040703Y-36414998D01*
X51040703Y-36414998D02*
X51026417Y-36400712D01*
X51026417Y-36400712D02*
X50997846Y-36386426D01*
X50997846Y-36386426D02*
X50883560Y-36386426D01*
X51183560Y-36243569D02*
X51183560Y-36543569D01*
X51183560Y-36543569D02*
X51354989Y-36243569D01*
X51354989Y-36243569D02*
X51354989Y-36543569D01*
X51640703Y-36243569D02*
X51497846Y-36243569D01*
X51497846Y-36243569D02*
X51497846Y-36543569D01*
X49771417Y-13282157D02*
X49757131Y-13267871D01*
X49757131Y-13267871D02*
X49714274Y-13253585D01*
X49714274Y-13253585D02*
X49685702Y-13253585D01*
X49685702Y-13253585D02*
X49642845Y-13267871D01*
X49642845Y-13267871D02*
X49614274Y-13296442D01*
X49614274Y-13296442D02*
X49599988Y-13325014D01*
X49599988Y-13325014D02*
X49585702Y-13382157D01*
X49585702Y-13382157D02*
X49585702Y-13425014D01*
X49585702Y-13425014D02*
X49599988Y-13482157D01*
X49599988Y-13482157D02*
X49614274Y-13510728D01*
X49614274Y-13510728D02*
X49642845Y-13539300D01*
X49642845Y-13539300D02*
X49685702Y-13553585D01*
X49685702Y-13553585D02*
X49714274Y-13553585D01*
X49714274Y-13553585D02*
X49757131Y-13539300D01*
X49757131Y-13539300D02*
X49771417Y-13525014D01*
X49942845Y-13253585D02*
X49914274Y-13267871D01*
X49914274Y-13267871D02*
X49899988Y-13282157D01*
X49899988Y-13282157D02*
X49885702Y-13310728D01*
X49885702Y-13310728D02*
X49885702Y-13396442D01*
X49885702Y-13396442D02*
X49899988Y-13425014D01*
X49899988Y-13425014D02*
X49914274Y-13439300D01*
X49914274Y-13439300D02*
X49942845Y-13453585D01*
X49942845Y-13453585D02*
X49985702Y-13453585D01*
X49985702Y-13453585D02*
X50014274Y-13439300D01*
X50014274Y-13439300D02*
X50028560Y-13425014D01*
X50028560Y-13425014D02*
X50042845Y-13396442D01*
X50042845Y-13396442D02*
X50042845Y-13310728D01*
X50042845Y-13310728D02*
X50028560Y-13282157D01*
X50028560Y-13282157D02*
X50014274Y-13267871D01*
X50014274Y-13267871D02*
X49985702Y-13253585D01*
X49985702Y-13253585D02*
X49942845Y-13253585D01*
X50214274Y-13253585D02*
X50185703Y-13267871D01*
X50185703Y-13267871D02*
X50171417Y-13282157D01*
X50171417Y-13282157D02*
X50157131Y-13310728D01*
X50157131Y-13310728D02*
X50157131Y-13396442D01*
X50157131Y-13396442D02*
X50171417Y-13425014D01*
X50171417Y-13425014D02*
X50185703Y-13439300D01*
X50185703Y-13439300D02*
X50214274Y-13453585D01*
X50214274Y-13453585D02*
X50257131Y-13453585D01*
X50257131Y-13453585D02*
X50285703Y-13439300D01*
X50285703Y-13439300D02*
X50299989Y-13425014D01*
X50299989Y-13425014D02*
X50314274Y-13396442D01*
X50314274Y-13396442D02*
X50314274Y-13310728D01*
X50314274Y-13310728D02*
X50299989Y-13282157D01*
X50299989Y-13282157D02*
X50285703Y-13267871D01*
X50285703Y-13267871D02*
X50257131Y-13253585D01*
X50257131Y-13253585D02*
X50214274Y-13253585D01*
X50442846Y-13253585D02*
X50442846Y-13553585D01*
X50471418Y-13367871D02*
X50557132Y-13253585D01*
X50557132Y-13453585D02*
X50442846Y-13339300D01*
X50685703Y-13253585D02*
X50685703Y-13453585D01*
X50685703Y-13553585D02*
X50671417Y-13539300D01*
X50671417Y-13539300D02*
X50685703Y-13525014D01*
X50685703Y-13525014D02*
X50699989Y-13539300D01*
X50699989Y-13539300D02*
X50685703Y-13553585D01*
X50685703Y-13553585D02*
X50685703Y-13525014D01*
X50942846Y-13267871D02*
X50914274Y-13253585D01*
X50914274Y-13253585D02*
X50857132Y-13253585D01*
X50857132Y-13253585D02*
X50828560Y-13267871D01*
X50828560Y-13267871D02*
X50814274Y-13296442D01*
X50814274Y-13296442D02*
X50814274Y-13410728D01*
X50814274Y-13410728D02*
X50828560Y-13439300D01*
X50828560Y-13439300D02*
X50857132Y-13453585D01*
X50857132Y-13453585D02*
X50914274Y-13453585D01*
X50914274Y-13453585D02*
X50942846Y-13439300D01*
X50942846Y-13439300D02*
X50957132Y-13410728D01*
X50957132Y-13410728D02*
X50957132Y-13382157D01*
X50957132Y-13382157D02*
X50814274Y-13353585D01*
X51014275Y-13225014D02*
X51242846Y-13225014D01*
X51371417Y-13553585D02*
X51399988Y-13553585D01*
X51399988Y-13553585D02*
X51428560Y-13539300D01*
X51428560Y-13539300D02*
X51442846Y-13525014D01*
X51442846Y-13525014D02*
X51457131Y-13496442D01*
X51457131Y-13496442D02*
X51471417Y-13439300D01*
X51471417Y-13439300D02*
X51471417Y-13367871D01*
X51471417Y-13367871D02*
X51457131Y-13310728D01*
X51457131Y-13310728D02*
X51442846Y-13282157D01*
X51442846Y-13282157D02*
X51428560Y-13267871D01*
X51428560Y-13267871D02*
X51399988Y-13253585D01*
X51399988Y-13253585D02*
X51371417Y-13253585D01*
X51371417Y-13253585D02*
X51342846Y-13267871D01*
X51342846Y-13267871D02*
X51328560Y-13282157D01*
X51328560Y-13282157D02*
X51314274Y-13310728D01*
X51314274Y-13310728D02*
X51299988Y-13367871D01*
X51299988Y-13367871D02*
X51299988Y-13439300D01*
X51299988Y-13439300D02*
X51314274Y-13496442D01*
X51314274Y-13496442D02*
X51328560Y-13525014D01*
X51328560Y-13525014D02*
X51342846Y-13539300D01*
X51342846Y-13539300D02*
X51371417Y-13553585D01*
X51599988Y-13282157D02*
X51614274Y-13267871D01*
X51614274Y-13267871D02*
X51599988Y-13253585D01*
X51599988Y-13253585D02*
X51585702Y-13267871D01*
X51585702Y-13267871D02*
X51599988Y-13282157D01*
X51599988Y-13282157D02*
X51599988Y-13253585D01*
X51885702Y-13553585D02*
X51742845Y-13553585D01*
X51742845Y-13553585D02*
X51728559Y-13410728D01*
X51728559Y-13410728D02*
X51742845Y-13425014D01*
X51742845Y-13425014D02*
X51771417Y-13439300D01*
X51771417Y-13439300D02*
X51842845Y-13439300D01*
X51842845Y-13439300D02*
X51871417Y-13425014D01*
X51871417Y-13425014D02*
X51885702Y-13410728D01*
X51885702Y-13410728D02*
X51899988Y-13382157D01*
X51899988Y-13382157D02*
X51899988Y-13310728D01*
X51899988Y-13310728D02*
X51885702Y-13282157D01*
X51885702Y-13282157D02*
X51871417Y-13267871D01*
X51871417Y-13267871D02*
X51842845Y-13253585D01*
X51842845Y-13253585D02*
X51771417Y-13253585D01*
X51771417Y-13253585D02*
X51742845Y-13267871D01*
X51742845Y-13267871D02*
X51728559Y-13282157D01*
X52208559Y-13253585D02*
X52208559Y-13453585D01*
X52208559Y-13425014D02*
X52222845Y-13439300D01*
X52222845Y-13439300D02*
X52251416Y-13453585D01*
X52251416Y-13453585D02*
X52294273Y-13453585D01*
X52294273Y-13453585D02*
X52322845Y-13439300D01*
X52322845Y-13439300D02*
X52337131Y-13410728D01*
X52337131Y-13410728D02*
X52337131Y-13253585D01*
X52337131Y-13410728D02*
X52351416Y-13439300D01*
X52351416Y-13439300D02*
X52379988Y-13453585D01*
X52379988Y-13453585D02*
X52422845Y-13453585D01*
X52422845Y-13453585D02*
X52451416Y-13439300D01*
X52451416Y-13439300D02*
X52465702Y-13410728D01*
X52465702Y-13410728D02*
X52465702Y-13253585D01*
X52608559Y-13253585D02*
X52608559Y-13453585D01*
X52608559Y-13425014D02*
X52622845Y-13439300D01*
X52622845Y-13439300D02*
X52651416Y-13453585D01*
X52651416Y-13453585D02*
X52694273Y-13453585D01*
X52694273Y-13453585D02*
X52722845Y-13439300D01*
X52722845Y-13439300D02*
X52737131Y-13410728D01*
X52737131Y-13410728D02*
X52737131Y-13253585D01*
X52737131Y-13410728D02*
X52751416Y-13439300D01*
X52751416Y-13439300D02*
X52779988Y-13453585D01*
X52779988Y-13453585D02*
X52822845Y-13453585D01*
X52822845Y-13453585D02*
X52851416Y-13439300D01*
X52851416Y-13439300D02*
X52865702Y-13410728D01*
X52865702Y-13410728D02*
X52865702Y-13253585D01*
X49599988Y-13067585D02*
X49599988Y-12824728D01*
X49599988Y-12824728D02*
X49614274Y-12796157D01*
X49614274Y-12796157D02*
X49628560Y-12781871D01*
X49628560Y-12781871D02*
X49657131Y-12767585D01*
X49657131Y-12767585D02*
X49714274Y-12767585D01*
X49714274Y-12767585D02*
X49742845Y-12781871D01*
X49742845Y-12781871D02*
X49757131Y-12796157D01*
X49757131Y-12796157D02*
X49771417Y-12824728D01*
X49771417Y-12824728D02*
X49771417Y-13067585D01*
X49871417Y-13067585D02*
X50042846Y-13067585D01*
X49957131Y-12767585D02*
X49957131Y-13067585D01*
X50128559Y-12853300D02*
X50271417Y-12853300D01*
X50099988Y-12767585D02*
X50199988Y-13067585D01*
X50199988Y-13067585D02*
X50299988Y-12767585D01*
X50614274Y-13081871D02*
X50357131Y-12696157D01*
X50771417Y-13067585D02*
X50828560Y-13067585D01*
X50828560Y-13067585D02*
X50857131Y-13053300D01*
X50857131Y-13053300D02*
X50885703Y-13024728D01*
X50885703Y-13024728D02*
X50899988Y-12967585D01*
X50899988Y-12967585D02*
X50899988Y-12867585D01*
X50899988Y-12867585D02*
X50885703Y-12810442D01*
X50885703Y-12810442D02*
X50857131Y-12781871D01*
X50857131Y-12781871D02*
X50828560Y-12767585D01*
X50828560Y-12767585D02*
X50771417Y-12767585D01*
X50771417Y-12767585D02*
X50742846Y-12781871D01*
X50742846Y-12781871D02*
X50714274Y-12810442D01*
X50714274Y-12810442D02*
X50699988Y-12867585D01*
X50699988Y-12867585D02*
X50699988Y-12967585D01*
X50699988Y-12967585D02*
X50714274Y-13024728D01*
X50714274Y-13024728D02*
X50742846Y-13053300D01*
X50742846Y-13053300D02*
X50771417Y-13067585D01*
X51199989Y-12767585D02*
X51099989Y-12910442D01*
X51028560Y-12767585D02*
X51028560Y-13067585D01*
X51028560Y-13067585D02*
X51142846Y-13067585D01*
X51142846Y-13067585D02*
X51171417Y-13053300D01*
X51171417Y-13053300D02*
X51185703Y-13039014D01*
X51185703Y-13039014D02*
X51199989Y-13010442D01*
X51199989Y-13010442D02*
X51199989Y-12967585D01*
X51199989Y-12967585D02*
X51185703Y-12939014D01*
X51185703Y-12939014D02*
X51171417Y-12924728D01*
X51171417Y-12924728D02*
X51142846Y-12910442D01*
X51142846Y-12910442D02*
X51028560Y-12910442D01*
X51328560Y-12767585D02*
X51328560Y-13067585D01*
X51328560Y-13067585D02*
X51499989Y-12767585D01*
X51499989Y-12767585D02*
X51499989Y-13067585D01*
X51785703Y-12767585D02*
X51642846Y-12767585D01*
X51642846Y-12767585D02*
X51642846Y-13067585D01*
X29142857Y-13361357D02*
X29128571Y-13347071D01*
X29128571Y-13347071D02*
X29085714Y-13332785D01*
X29085714Y-13332785D02*
X29057142Y-13332785D01*
X29057142Y-13332785D02*
X29014285Y-13347071D01*
X29014285Y-13347071D02*
X28985714Y-13375642D01*
X28985714Y-13375642D02*
X28971428Y-13404214D01*
X28971428Y-13404214D02*
X28957142Y-13461357D01*
X28957142Y-13461357D02*
X28957142Y-13504214D01*
X28957142Y-13504214D02*
X28971428Y-13561357D01*
X28971428Y-13561357D02*
X28985714Y-13589928D01*
X28985714Y-13589928D02*
X29014285Y-13618500D01*
X29014285Y-13618500D02*
X29057142Y-13632785D01*
X29057142Y-13632785D02*
X29085714Y-13632785D01*
X29085714Y-13632785D02*
X29128571Y-13618500D01*
X29128571Y-13618500D02*
X29142857Y-13604214D01*
X29314285Y-13332785D02*
X29285714Y-13347071D01*
X29285714Y-13347071D02*
X29271428Y-13361357D01*
X29271428Y-13361357D02*
X29257142Y-13389928D01*
X29257142Y-13389928D02*
X29257142Y-13475642D01*
X29257142Y-13475642D02*
X29271428Y-13504214D01*
X29271428Y-13504214D02*
X29285714Y-13518500D01*
X29285714Y-13518500D02*
X29314285Y-13532785D01*
X29314285Y-13532785D02*
X29357142Y-13532785D01*
X29357142Y-13532785D02*
X29385714Y-13518500D01*
X29385714Y-13518500D02*
X29400000Y-13504214D01*
X29400000Y-13504214D02*
X29414285Y-13475642D01*
X29414285Y-13475642D02*
X29414285Y-13389928D01*
X29414285Y-13389928D02*
X29400000Y-13361357D01*
X29400000Y-13361357D02*
X29385714Y-13347071D01*
X29385714Y-13347071D02*
X29357142Y-13332785D01*
X29357142Y-13332785D02*
X29314285Y-13332785D01*
X29585714Y-13332785D02*
X29557143Y-13347071D01*
X29557143Y-13347071D02*
X29542857Y-13361357D01*
X29542857Y-13361357D02*
X29528571Y-13389928D01*
X29528571Y-13389928D02*
X29528571Y-13475642D01*
X29528571Y-13475642D02*
X29542857Y-13504214D01*
X29542857Y-13504214D02*
X29557143Y-13518500D01*
X29557143Y-13518500D02*
X29585714Y-13532785D01*
X29585714Y-13532785D02*
X29628571Y-13532785D01*
X29628571Y-13532785D02*
X29657143Y-13518500D01*
X29657143Y-13518500D02*
X29671429Y-13504214D01*
X29671429Y-13504214D02*
X29685714Y-13475642D01*
X29685714Y-13475642D02*
X29685714Y-13389928D01*
X29685714Y-13389928D02*
X29671429Y-13361357D01*
X29671429Y-13361357D02*
X29657143Y-13347071D01*
X29657143Y-13347071D02*
X29628571Y-13332785D01*
X29628571Y-13332785D02*
X29585714Y-13332785D01*
X29814286Y-13332785D02*
X29814286Y-13632785D01*
X29842858Y-13447071D02*
X29928572Y-13332785D01*
X29928572Y-13532785D02*
X29814286Y-13418500D01*
X30057143Y-13332785D02*
X30057143Y-13532785D01*
X30057143Y-13632785D02*
X30042857Y-13618500D01*
X30042857Y-13618500D02*
X30057143Y-13604214D01*
X30057143Y-13604214D02*
X30071429Y-13618500D01*
X30071429Y-13618500D02*
X30057143Y-13632785D01*
X30057143Y-13632785D02*
X30057143Y-13604214D01*
X30314286Y-13347071D02*
X30285714Y-13332785D01*
X30285714Y-13332785D02*
X30228572Y-13332785D01*
X30228572Y-13332785D02*
X30200000Y-13347071D01*
X30200000Y-13347071D02*
X30185714Y-13375642D01*
X30185714Y-13375642D02*
X30185714Y-13489928D01*
X30185714Y-13489928D02*
X30200000Y-13518500D01*
X30200000Y-13518500D02*
X30228572Y-13532785D01*
X30228572Y-13532785D02*
X30285714Y-13532785D01*
X30285714Y-13532785D02*
X30314286Y-13518500D01*
X30314286Y-13518500D02*
X30328572Y-13489928D01*
X30328572Y-13489928D02*
X30328572Y-13461357D01*
X30328572Y-13461357D02*
X30185714Y-13432785D01*
X30385715Y-13304214D02*
X30614286Y-13304214D01*
X30742857Y-13632785D02*
X30771428Y-13632785D01*
X30771428Y-13632785D02*
X30800000Y-13618500D01*
X30800000Y-13618500D02*
X30814286Y-13604214D01*
X30814286Y-13604214D02*
X30828571Y-13575642D01*
X30828571Y-13575642D02*
X30842857Y-13518500D01*
X30842857Y-13518500D02*
X30842857Y-13447071D01*
X30842857Y-13447071D02*
X30828571Y-13389928D01*
X30828571Y-13389928D02*
X30814286Y-13361357D01*
X30814286Y-13361357D02*
X30800000Y-13347071D01*
X30800000Y-13347071D02*
X30771428Y-13332785D01*
X30771428Y-13332785D02*
X30742857Y-13332785D01*
X30742857Y-13332785D02*
X30714286Y-13347071D01*
X30714286Y-13347071D02*
X30700000Y-13361357D01*
X30700000Y-13361357D02*
X30685714Y-13389928D01*
X30685714Y-13389928D02*
X30671428Y-13447071D01*
X30671428Y-13447071D02*
X30671428Y-13518500D01*
X30671428Y-13518500D02*
X30685714Y-13575642D01*
X30685714Y-13575642D02*
X30700000Y-13604214D01*
X30700000Y-13604214D02*
X30714286Y-13618500D01*
X30714286Y-13618500D02*
X30742857Y-13632785D01*
X30971428Y-13361357D02*
X30985714Y-13347071D01*
X30985714Y-13347071D02*
X30971428Y-13332785D01*
X30971428Y-13332785D02*
X30957142Y-13347071D01*
X30957142Y-13347071D02*
X30971428Y-13361357D01*
X30971428Y-13361357D02*
X30971428Y-13332785D01*
X31257142Y-13632785D02*
X31114285Y-13632785D01*
X31114285Y-13632785D02*
X31099999Y-13489928D01*
X31099999Y-13489928D02*
X31114285Y-13504214D01*
X31114285Y-13504214D02*
X31142857Y-13518500D01*
X31142857Y-13518500D02*
X31214285Y-13518500D01*
X31214285Y-13518500D02*
X31242857Y-13504214D01*
X31242857Y-13504214D02*
X31257142Y-13489928D01*
X31257142Y-13489928D02*
X31271428Y-13461357D01*
X31271428Y-13461357D02*
X31271428Y-13389928D01*
X31271428Y-13389928D02*
X31257142Y-13361357D01*
X31257142Y-13361357D02*
X31242857Y-13347071D01*
X31242857Y-13347071D02*
X31214285Y-13332785D01*
X31214285Y-13332785D02*
X31142857Y-13332785D01*
X31142857Y-13332785D02*
X31114285Y-13347071D01*
X31114285Y-13347071D02*
X31099999Y-13361357D01*
X31579999Y-13332785D02*
X31579999Y-13532785D01*
X31579999Y-13504214D02*
X31594285Y-13518500D01*
X31594285Y-13518500D02*
X31622856Y-13532785D01*
X31622856Y-13532785D02*
X31665713Y-13532785D01*
X31665713Y-13532785D02*
X31694285Y-13518500D01*
X31694285Y-13518500D02*
X31708571Y-13489928D01*
X31708571Y-13489928D02*
X31708571Y-13332785D01*
X31708571Y-13489928D02*
X31722856Y-13518500D01*
X31722856Y-13518500D02*
X31751428Y-13532785D01*
X31751428Y-13532785D02*
X31794285Y-13532785D01*
X31794285Y-13532785D02*
X31822856Y-13518500D01*
X31822856Y-13518500D02*
X31837142Y-13489928D01*
X31837142Y-13489928D02*
X31837142Y-13332785D01*
X31979999Y-13332785D02*
X31979999Y-13532785D01*
X31979999Y-13504214D02*
X31994285Y-13518500D01*
X31994285Y-13518500D02*
X32022856Y-13532785D01*
X32022856Y-13532785D02*
X32065713Y-13532785D01*
X32065713Y-13532785D02*
X32094285Y-13518500D01*
X32094285Y-13518500D02*
X32108571Y-13489928D01*
X32108571Y-13489928D02*
X32108571Y-13332785D01*
X32108571Y-13489928D02*
X32122856Y-13518500D01*
X32122856Y-13518500D02*
X32151428Y-13532785D01*
X32151428Y-13532785D02*
X32194285Y-13532785D01*
X32194285Y-13532785D02*
X32222856Y-13518500D01*
X32222856Y-13518500D02*
X32237142Y-13489928D01*
X32237142Y-13489928D02*
X32237142Y-13332785D01*
X28971428Y-13146785D02*
X28971428Y-12903928D01*
X28971428Y-12903928D02*
X28985714Y-12875357D01*
X28985714Y-12875357D02*
X29000000Y-12861071D01*
X29000000Y-12861071D02*
X29028571Y-12846785D01*
X29028571Y-12846785D02*
X29085714Y-12846785D01*
X29085714Y-12846785D02*
X29114285Y-12861071D01*
X29114285Y-12861071D02*
X29128571Y-12875357D01*
X29128571Y-12875357D02*
X29142857Y-12903928D01*
X29142857Y-12903928D02*
X29142857Y-13146785D01*
X29242857Y-13146785D02*
X29414286Y-13146785D01*
X29328571Y-12846785D02*
X29328571Y-13146785D01*
X29499999Y-12932500D02*
X29642857Y-12932500D01*
X29471428Y-12846785D02*
X29571428Y-13146785D01*
X29571428Y-13146785D02*
X29671428Y-12846785D01*
X29985714Y-13161071D02*
X29728571Y-12775357D01*
X30142857Y-13146785D02*
X30200000Y-13146785D01*
X30200000Y-13146785D02*
X30228571Y-13132500D01*
X30228571Y-13132500D02*
X30257143Y-13103928D01*
X30257143Y-13103928D02*
X30271428Y-13046785D01*
X30271428Y-13046785D02*
X30271428Y-12946785D01*
X30271428Y-12946785D02*
X30257143Y-12889642D01*
X30257143Y-12889642D02*
X30228571Y-12861071D01*
X30228571Y-12861071D02*
X30200000Y-12846785D01*
X30200000Y-12846785D02*
X30142857Y-12846785D01*
X30142857Y-12846785D02*
X30114286Y-12861071D01*
X30114286Y-12861071D02*
X30085714Y-12889642D01*
X30085714Y-12889642D02*
X30071428Y-12946785D01*
X30071428Y-12946785D02*
X30071428Y-13046785D01*
X30071428Y-13046785D02*
X30085714Y-13103928D01*
X30085714Y-13103928D02*
X30114286Y-13132500D01*
X30114286Y-13132500D02*
X30142857Y-13146785D01*
X30571429Y-12846785D02*
X30471429Y-12989642D01*
X30400000Y-12846785D02*
X30400000Y-13146785D01*
X30400000Y-13146785D02*
X30514286Y-13146785D01*
X30514286Y-13146785D02*
X30542857Y-13132500D01*
X30542857Y-13132500D02*
X30557143Y-13118214D01*
X30557143Y-13118214D02*
X30571429Y-13089642D01*
X30571429Y-13089642D02*
X30571429Y-13046785D01*
X30571429Y-13046785D02*
X30557143Y-13018214D01*
X30557143Y-13018214D02*
X30542857Y-13003928D01*
X30542857Y-13003928D02*
X30514286Y-12989642D01*
X30514286Y-12989642D02*
X30400000Y-12989642D01*
X30700000Y-12846785D02*
X30700000Y-13146785D01*
X30700000Y-13146785D02*
X30871429Y-12846785D01*
X30871429Y-12846785D02*
X30871429Y-13146785D01*
X31157143Y-12846785D02*
X31014286Y-12846785D01*
X31014286Y-12846785D02*
X31014286Y-13146785D01*
M02*
