%TF.GenerationSoftware,KiCad,Pcbnew,(7.0.0)*%
%TF.CreationDate,2023-03-30T16:56:58-05:00*%
%TF.ProjectId,Cookie_Mantis_Stencil,436f6f6b-6965-45f4-9d61-6e7469735f53,rev?*%
%TF.SameCoordinates,Original*%
%TF.FileFunction,Profile,NP*%
%FSLAX46Y46*%
G04 Gerber Fmt 4.6, Leading zero omitted, Abs format (unit mm)*
G04 Created by KiCad (PCBNEW (7.0.0)) date 2023-03-30 16:56:58*
%MOMM*%
%LPD*%
G01*
G04 APERTURE LIST*
%TA.AperFunction,Profile*%
%ADD10C,0.050000*%
%TD*%
%TA.AperFunction,Profile*%
%ADD11C,0.100000*%
%TD*%
G04 APERTURE END LIST*
D10*
X73289600Y-35106000D02*
G75*
G03*
X73670600Y-34725000I0J381000D01*
G01*
X29423300Y-35105200D02*
X32296040Y-35105200D01*
X27229600Y-57966000D02*
G75*
G03*
X27610600Y-57585000I0J381000D01*
G01*
X33005000Y-34725000D02*
G75*
G03*
X33386000Y-35106000I380900J-100D01*
G01*
X33050000Y-35365000D02*
X41340560Y-35365000D01*
X32296040Y-35105140D02*
G75*
G03*
X32677040Y-34724200I60J380940D01*
G01*
X32690600Y-48610800D02*
X32690600Y-35360000D01*
D11*
X27213560Y-47161784D02*
X18213560Y-47161784D01*
X19213560Y-46161784D01*
X26213560Y-46161784D01*
X27213560Y-47161784D01*
D10*
X53630000Y-12500000D02*
X61920560Y-12500000D01*
X33005000Y-34725000D02*
X32677040Y-34724200D01*
X33050000Y-57259800D02*
X32695000Y-57260000D01*
X12650000Y-57254800D02*
X12650000Y-52310800D01*
X49410860Y-32309460D02*
X49410860Y-34725000D01*
X49455900Y-57590000D02*
G75*
G03*
X49836860Y-57971000I381000J0D01*
G01*
X47584600Y-35106000D02*
X44917600Y-35106000D01*
X12650000Y-35360000D02*
X13020000Y-35360000D01*
X68209600Y-35106000D02*
X65542600Y-35106000D01*
X44896560Y-35365000D02*
X53090600Y-35365000D01*
X53630000Y-25750800D02*
X53630000Y-12500000D01*
X33005000Y-34394800D02*
X32680000Y-34390000D01*
X33018560Y-29450849D02*
G75*
G03*
X33018560Y-25750751I0J1850049D01*
G01*
D11*
X60693560Y-16300800D02*
X66693560Y-16300800D01*
X66693560Y-16300800D02*
X66693560Y-22300800D01*
X66693560Y-22300800D02*
X60693560Y-22300800D01*
X60693560Y-22300800D02*
X60693560Y-16300800D01*
D10*
X49410900Y-34725000D02*
G75*
G03*
X49791860Y-35106000I381000J0D01*
G01*
X32677040Y-25749600D02*
G75*
G03*
X32677040Y-29450000I0J-1850200D01*
G01*
X29042300Y-34724200D02*
G75*
G03*
X29423300Y-35105200I381000J0D01*
G01*
D11*
X18713560Y-38661784D02*
X18713560Y-45661784D01*
X17713560Y-46661784D01*
X17713560Y-37661784D01*
X18713560Y-38661784D01*
D10*
X29042300Y-32308660D02*
X29042300Y-34724200D01*
X70035860Y-32309460D02*
X70035860Y-34725000D01*
X20940560Y-35360000D02*
G75*
G03*
X24496560Y-35360000I1778000J0D01*
G01*
X33050000Y-57590000D02*
G75*
G03*
X33431000Y-57971000I380900J-100D01*
G01*
X44962600Y-57971000D02*
X34040600Y-57971000D01*
X54011000Y-35106000D02*
X54620600Y-35106000D01*
X27216040Y-35105200D02*
X24549040Y-35105200D01*
X12636440Y-12499200D02*
X20927000Y-12499200D01*
D11*
X46068560Y-15300800D02*
X39068560Y-15300800D01*
X39068560Y-22300800D01*
X38568560Y-22300800D01*
X38568560Y-14800800D01*
X46068560Y-14800800D01*
X46068560Y-15300800D01*
X26700000Y-23800000D02*
X18700000Y-23800000D01*
X19200000Y-23300000D01*
X26200000Y-23300000D01*
X26700000Y-23800000D01*
X46113560Y-38165800D02*
X39113560Y-38165800D01*
X39113560Y-45165800D01*
X38113560Y-45165800D01*
X38113560Y-37165800D01*
X46113560Y-37165800D01*
X46113560Y-38165800D01*
D10*
X27216040Y-35105140D02*
G75*
G03*
X27597040Y-34724200I60J380940D01*
G01*
D11*
X26200000Y-15300000D02*
X19200000Y-15300000D01*
X18700000Y-14800000D01*
X26700000Y-14800000D01*
X26200000Y-15300000D01*
D10*
X29042302Y-32308660D02*
G75*
G03*
X27596466Y-32255359I-723902J-40D01*
G01*
X73670600Y-34725000D02*
X73670600Y-29450800D01*
X70035942Y-32309460D02*
G75*
G03*
X68590026Y-32256159I-723942J-40D01*
G01*
X12636500Y-34724200D02*
G75*
G03*
X13017440Y-35105200I380900J-100D01*
G01*
X24562600Y-57966000D02*
X13640600Y-57966000D01*
X49455860Y-55174460D02*
X49455860Y-57590000D01*
X61920560Y-12500000D02*
G75*
G03*
X65476560Y-12500000I1778000J0D01*
G01*
X65476560Y-12500000D02*
X73670600Y-12500000D01*
X27610025Y-55116159D02*
X27610600Y-57585000D01*
X53090600Y-48615800D02*
X53090600Y-35365000D01*
X68590025Y-32256159D02*
X68590600Y-34725000D01*
X47629600Y-57971000D02*
X44962600Y-57971000D01*
X49410942Y-32309460D02*
G75*
G03*
X47965026Y-32256159I-723942J-40D01*
G01*
X27596465Y-32255359D02*
X27597040Y-34724200D01*
X47584600Y-35106000D02*
G75*
G03*
X47965600Y-34725000I0J381000D01*
G01*
X53045600Y-25750800D02*
X53045600Y-12500000D01*
X12650000Y-57254800D02*
X12650000Y-57585000D01*
X48010025Y-55121159D02*
X48010600Y-57590000D01*
X53090600Y-48615400D02*
G75*
G03*
X53090600Y-52315800I0J-1850200D01*
G01*
D11*
X27713560Y-46661784D02*
X26713560Y-45661784D01*
X26713560Y-38661784D01*
X27713560Y-37661784D01*
X27713560Y-46661784D01*
D10*
X24496560Y-35360000D02*
X32690600Y-35360000D01*
X47629600Y-57971000D02*
G75*
G03*
X48010600Y-57590000I0J381000D01*
G01*
X53045600Y-25750400D02*
G75*
G03*
X53045600Y-29450800I0J-1850200D01*
G01*
X24483000Y-12499200D02*
X32677040Y-12499200D01*
X49455942Y-55174460D02*
G75*
G03*
X48010026Y-55121159I-723942J-40D01*
G01*
X33050000Y-57590000D02*
X32690600Y-57585000D01*
X49836860Y-57971000D02*
X52709600Y-57971000D01*
X24549040Y-35105200D02*
X13627040Y-35105200D01*
X70035900Y-34725000D02*
G75*
G03*
X70416860Y-35106000I381000J0D01*
G01*
X12650000Y-48610800D02*
X12650000Y-35360000D01*
X20927000Y-12499200D02*
G75*
G03*
X24483000Y-12499200I1778000J0D01*
G01*
X53643560Y-29450849D02*
G75*
G03*
X53643560Y-25750751I0J1850049D01*
G01*
X41295560Y-12500000D02*
G75*
G03*
X44851560Y-12500000I1778000J0D01*
G01*
X47965025Y-32256159D02*
X47965600Y-34725000D01*
D11*
X26213560Y-38161784D02*
X19213560Y-38161784D01*
X18213560Y-37161784D01*
X27213560Y-37161784D01*
X26213560Y-38161784D01*
D10*
X70416860Y-35106000D02*
X73289600Y-35106000D01*
X13017440Y-35105200D02*
X13020000Y-35360000D01*
X52709600Y-57971000D02*
G75*
G03*
X53090600Y-57590000I0J381000D01*
G01*
D11*
X27200000Y-23300000D02*
X26700000Y-22800000D01*
X26700000Y-15800000D01*
X27200000Y-15300000D01*
X27200000Y-23300000D01*
D10*
X29055800Y-57585000D02*
G75*
G03*
X29436860Y-57966000I381000J0D01*
G01*
X32680000Y-34390000D02*
X32677040Y-29450000D01*
X53090600Y-57590000D02*
X53090600Y-52315800D01*
X53045000Y-34390000D02*
X53045600Y-29450800D01*
X73670600Y-25750400D02*
G75*
G03*
X73670600Y-29450800I0J-1850200D01*
G01*
X33005000Y-25750800D02*
X33005000Y-12500000D01*
X12636440Y-34394000D02*
X12636440Y-34724200D01*
X13031000Y-57966000D02*
X13640600Y-57966000D01*
X27229600Y-57966000D02*
X24562600Y-57966000D01*
X29055860Y-55169460D02*
X29055860Y-57585000D01*
X32677040Y-25750000D02*
X32677040Y-12499200D01*
D11*
X18700000Y-15800000D02*
X18700000Y-22800000D01*
X18200000Y-23300000D01*
X18200000Y-15300000D01*
X18700000Y-15800000D01*
D10*
X52664600Y-35106000D02*
G75*
G03*
X53045600Y-34725000I0J381000D01*
G01*
X53630000Y-34725000D02*
G75*
G03*
X54011000Y-35106000I380900J-100D01*
G01*
X33005000Y-34394800D02*
X33005000Y-29450800D01*
X33063560Y-52315849D02*
G75*
G03*
X33063560Y-48615751I0J1850049D01*
G01*
X41340560Y-35365000D02*
G75*
G03*
X44896560Y-35365000I1778000J0D01*
G01*
X73670600Y-25750800D02*
X73670600Y-12500000D01*
X12650000Y-29450049D02*
G75*
G03*
X12650000Y-25749951I0J1850049D01*
G01*
X12663560Y-52310849D02*
G75*
G03*
X12663560Y-48610751I0J1850049D01*
G01*
X32690600Y-48610400D02*
G75*
G03*
X32690600Y-52310800I0J-1850200D01*
G01*
X53630000Y-34394800D02*
X53045000Y-34390000D01*
X12650000Y-57585000D02*
G75*
G03*
X13031000Y-57966000I380900J-100D01*
G01*
X13635000Y-35355000D02*
X20940560Y-35360000D01*
X29055861Y-55169460D02*
G75*
G03*
X27610025Y-55116159I-723901J-20D01*
G01*
X33050000Y-48615800D02*
X33050000Y-35365000D01*
X33431000Y-57971000D02*
X34040600Y-57971000D01*
X33050000Y-57259800D02*
X33050000Y-52315800D01*
X33386000Y-35106000D02*
X33995600Y-35106000D01*
X49791860Y-35106000D02*
X52664600Y-35106000D01*
X44917600Y-35106000D02*
X33995600Y-35106000D01*
X29436860Y-57966000D02*
X32309600Y-57966000D01*
X33005000Y-12500000D02*
X41295560Y-12500000D01*
X32309600Y-57966000D02*
G75*
G03*
X32690600Y-57585000I0J381000D01*
G01*
X12636440Y-34394000D02*
X12636440Y-29450000D01*
X65542600Y-35106000D02*
X54620600Y-35106000D01*
X68209600Y-35106000D02*
G75*
G03*
X68590600Y-34725000I0J381000D01*
G01*
X32695000Y-57260000D02*
X32690600Y-52310800D01*
X53627500Y-34727400D02*
X53045600Y-34725000D01*
X12636440Y-25750000D02*
X12636440Y-12499200D01*
X44851560Y-12500000D02*
X53045600Y-12500000D01*
X13627040Y-35105200D02*
X13635000Y-35355000D01*
X53630000Y-34394800D02*
X53630000Y-29450800D01*
M02*
