%TF.GenerationSoftware,KiCad,Pcbnew,(7.0.0)*%
%TF.CreationDate,2023-03-30T16:57:02-05:00*%
%TF.ProjectId,Cookie_Mantis_Stencil,436f6f6b-6965-45f4-9d61-6e7469735f53,rev?*%
%TF.SameCoordinates,Original*%
%TF.FileFunction,Drillmap*%
%TF.FilePolarity,Positive*%
%FSLAX45Y45*%
G04 Gerber Fmt 4.5, Leading zero omitted, Abs format (unit mm)*
G04 Created by KiCad (PCBNEW (7.0.0)) date 2023-03-30 16:57:02*
%MOMM*%
%LPD*%
G01*
G04 APERTURE LIST*
%ADD10C,0.050000*%
%ADD11C,0.100000*%
%ADD12C,0.200000*%
G04 APERTURE END LIST*
D10*
X7328960Y-3510600D02*
G75*
G03*
X7367060Y-3472500I0J38100D01*
G01*
X2942330Y-3510520D02*
X3229604Y-3510520D01*
X2722960Y-5796600D02*
G75*
G03*
X2761060Y-5758500I0J38100D01*
G01*
X3300500Y-3472500D02*
G75*
G03*
X3338600Y-3510600I38090J-10D01*
G01*
X3305000Y-3536500D02*
X4134056Y-3536500D01*
X3229604Y-3510514D02*
G75*
G03*
X3267704Y-3472420I6J38094D01*
G01*
X3269060Y-4861080D02*
X3269060Y-3536000D01*
D11*
X2721356Y-4716178D02*
X1821356Y-4716178D01*
X1921356Y-4616178D01*
X2621356Y-4616178D01*
X2721356Y-4716178D01*
D10*
X5363000Y-1250000D02*
X6192056Y-1250000D01*
X3300500Y-3472500D02*
X3267704Y-3472420D01*
X3305000Y-5725980D02*
X3269500Y-5726000D01*
X1265000Y-5725480D02*
X1265000Y-5231080D01*
X4941086Y-3230946D02*
X4941086Y-3472500D01*
X4945590Y-5759000D02*
G75*
G03*
X4983686Y-5797100I38100J0D01*
G01*
X4758460Y-3510600D02*
X4491760Y-3510600D01*
X1265000Y-3536000D02*
X1302000Y-3536000D01*
X6820960Y-3510600D02*
X6554260Y-3510600D01*
X4489656Y-3536500D02*
X5309060Y-3536500D01*
X5363000Y-2575080D02*
X5363000Y-1250000D01*
X3300500Y-3439480D02*
X3268000Y-3439000D01*
X3301856Y-2945085D02*
G75*
G03*
X3301856Y-2575075I0J185005D01*
G01*
D11*
X6069356Y-1630080D02*
X6669356Y-1630080D01*
X6669356Y-1630080D02*
X6669356Y-2230080D01*
X6669356Y-2230080D02*
X6069356Y-2230080D01*
X6069356Y-2230080D02*
X6069356Y-1630080D01*
D10*
X4941090Y-3472500D02*
G75*
G03*
X4979186Y-3510600I38100J0D01*
G01*
X3267704Y-2574960D02*
G75*
G03*
X3267704Y-2945000I0J-185020D01*
G01*
X2904230Y-3472420D02*
G75*
G03*
X2942330Y-3510520I38100J0D01*
G01*
D11*
X1871356Y-3866178D02*
X1871356Y-4566178D01*
X1771356Y-4666178D01*
X1771356Y-3766178D01*
X1871356Y-3866178D01*
D10*
X2904230Y-3230866D02*
X2904230Y-3472420D01*
X7003586Y-3230946D02*
X7003586Y-3472500D01*
X2094056Y-3536000D02*
G75*
G03*
X2449656Y-3536000I177800J0D01*
G01*
X3305000Y-5759000D02*
G75*
G03*
X3343100Y-5797100I38090J-10D01*
G01*
X4496260Y-5797100D02*
X3404060Y-5797100D01*
X5401100Y-3510600D02*
X5462060Y-3510600D01*
X2721604Y-3510520D02*
X2454904Y-3510520D01*
X1263644Y-1249920D02*
X2092700Y-1249920D01*
D11*
X4606856Y-1530080D02*
X3906856Y-1530080D01*
X3906856Y-2230080D01*
X3856856Y-2230080D01*
X3856856Y-1480080D01*
X4606856Y-1480080D01*
X4606856Y-1530080D01*
X2670000Y-2380000D02*
X1870000Y-2380000D01*
X1920000Y-2330000D01*
X2620000Y-2330000D01*
X2670000Y-2380000D01*
X4611356Y-3816580D02*
X3911356Y-3816580D01*
X3911356Y-4516580D01*
X3811356Y-4516580D01*
X3811356Y-3716580D01*
X4611356Y-3716580D01*
X4611356Y-3816580D01*
D10*
X2721604Y-3510514D02*
G75*
G03*
X2759704Y-3472420I6J38094D01*
G01*
D11*
X2620000Y-1530000D02*
X1920000Y-1530000D01*
X1870000Y-1480000D01*
X2670000Y-1480000D01*
X2620000Y-1530000D01*
D10*
X2904230Y-3230866D02*
G75*
G03*
X2759647Y-3225536I-72390J-4D01*
G01*
X7367060Y-3472500D02*
X7367060Y-2945080D01*
X7003594Y-3230946D02*
G75*
G03*
X6859003Y-3225616I-72394J-4D01*
G01*
X1263650Y-3472420D02*
G75*
G03*
X1301744Y-3510520I38090J-10D01*
G01*
X2456260Y-5796600D02*
X1364060Y-5796600D01*
X4945586Y-5517446D02*
X4945586Y-5759000D01*
X6192056Y-1250000D02*
G75*
G03*
X6547656Y-1250000I177800J0D01*
G01*
X6547656Y-1250000D02*
X7367060Y-1250000D01*
X2761003Y-5511616D02*
X2761060Y-5758500D01*
X5309060Y-4861580D02*
X5309060Y-3536500D01*
X6859002Y-3225616D02*
X6859060Y-3472500D01*
X4762960Y-5797100D02*
X4496260Y-5797100D01*
X4941094Y-3230946D02*
G75*
G03*
X4796503Y-3225616I-72394J-4D01*
G01*
X2759647Y-3225536D02*
X2759704Y-3472420D01*
X4758460Y-3510600D02*
G75*
G03*
X4796560Y-3472500I0J38100D01*
G01*
X5304560Y-2575080D02*
X5304560Y-1250000D01*
X1265000Y-5725480D02*
X1265000Y-5758500D01*
X4801003Y-5512116D02*
X4801060Y-5759000D01*
X5309060Y-4861540D02*
G75*
G03*
X5309060Y-5231580I0J-185020D01*
G01*
D11*
X2771356Y-4666178D02*
X2671356Y-4566178D01*
X2671356Y-3866178D01*
X2771356Y-3766178D01*
X2771356Y-4666178D01*
D10*
X2449656Y-3536000D02*
X3269060Y-3536000D01*
X4762960Y-5797100D02*
G75*
G03*
X4801060Y-5759000I0J38100D01*
G01*
X5304560Y-2575040D02*
G75*
G03*
X5304560Y-2945080I0J-185020D01*
G01*
X2448300Y-1249920D02*
X3267704Y-1249920D01*
X4945594Y-5517446D02*
G75*
G03*
X4801003Y-5512116I-72394J-4D01*
G01*
X3305000Y-5759000D02*
X3269060Y-5758500D01*
X4983686Y-5797100D02*
X5270960Y-5797100D01*
X2454904Y-3510520D02*
X1362704Y-3510520D01*
X7003590Y-3472500D02*
G75*
G03*
X7041686Y-3510600I38100J0D01*
G01*
X1265000Y-4861080D02*
X1265000Y-3536000D01*
X2092700Y-1249920D02*
G75*
G03*
X2448300Y-1249920I177800J0D01*
G01*
X5364356Y-2945085D02*
G75*
G03*
X5364356Y-2575075I0J185005D01*
G01*
X4129556Y-1250000D02*
G75*
G03*
X4485156Y-1250000I177800J0D01*
G01*
X4796503Y-3225616D02*
X4796560Y-3472500D01*
D11*
X2621356Y-3816178D02*
X1921356Y-3816178D01*
X1821356Y-3716178D01*
X2721356Y-3716178D01*
X2621356Y-3816178D01*
D10*
X7041686Y-3510600D02*
X7328960Y-3510600D01*
X1301744Y-3510520D02*
X1302000Y-3536000D01*
X5270960Y-5797100D02*
G75*
G03*
X5309060Y-5759000I0J38100D01*
G01*
D11*
X2720000Y-2330000D02*
X2670000Y-2280000D01*
X2670000Y-1580000D01*
X2720000Y-1530000D01*
X2720000Y-2330000D01*
D10*
X2905580Y-5758500D02*
G75*
G03*
X2943686Y-5796600I38100J0D01*
G01*
X3268000Y-3439000D02*
X3267704Y-2945000D01*
X5309060Y-5759000D02*
X5309060Y-5231580D01*
X5304500Y-3439000D02*
X5304560Y-2945080D01*
X7367060Y-2575040D02*
G75*
G03*
X7367060Y-2945080I0J-185020D01*
G01*
X3300500Y-2575080D02*
X3300500Y-1250000D01*
X1263644Y-3439400D02*
X1263644Y-3472420D01*
X1303100Y-5796600D02*
X1364060Y-5796600D01*
X2722960Y-5796600D02*
X2456260Y-5796600D01*
X2905586Y-5516946D02*
X2905586Y-5758500D01*
X3267704Y-2575000D02*
X3267704Y-1249920D01*
D11*
X1870000Y-1580000D02*
X1870000Y-2280000D01*
X1820000Y-2330000D01*
X1820000Y-1530000D01*
X1870000Y-1580000D01*
D10*
X5266460Y-3510600D02*
G75*
G03*
X5304560Y-3472500I0J38100D01*
G01*
X5363000Y-3472500D02*
G75*
G03*
X5401100Y-3510600I38090J-10D01*
G01*
X3300500Y-3439480D02*
X3300500Y-2945080D01*
X3306356Y-5231585D02*
G75*
G03*
X3306356Y-4861575I0J185005D01*
G01*
X4134056Y-3536500D02*
G75*
G03*
X4489656Y-3536500I177800J0D01*
G01*
X7367060Y-2575080D02*
X7367060Y-1250000D01*
X1265000Y-2945005D02*
G75*
G03*
X1265000Y-2574995I0J185005D01*
G01*
X1266356Y-5231085D02*
G75*
G03*
X1266356Y-4861075I0J185005D01*
G01*
X3269060Y-4861040D02*
G75*
G03*
X3269060Y-5231080I0J-185020D01*
G01*
X5363000Y-3439480D02*
X5304500Y-3439000D01*
X1265000Y-5758500D02*
G75*
G03*
X1303100Y-5796600I38090J-10D01*
G01*
X1363500Y-3535500D02*
X2094056Y-3536000D01*
X2905586Y-5516946D02*
G75*
G03*
X2761003Y-5511616I-72390J-2D01*
G01*
X3305000Y-4861580D02*
X3305000Y-3536500D01*
X3343100Y-5797100D02*
X3404060Y-5797100D01*
X3305000Y-5725980D02*
X3305000Y-5231580D01*
X3338600Y-3510600D02*
X3399560Y-3510600D01*
X4979186Y-3510600D02*
X5266460Y-3510600D01*
X4491760Y-3510600D02*
X3399560Y-3510600D01*
X2943686Y-5796600D02*
X3230960Y-5796600D01*
X3300500Y-1250000D02*
X4129556Y-1250000D01*
X3230960Y-5796600D02*
G75*
G03*
X3269060Y-5758500I0J38100D01*
G01*
X1263644Y-3439400D02*
X1263644Y-2945000D01*
X6554260Y-3510600D02*
X5462060Y-3510600D01*
X6820960Y-3510600D02*
G75*
G03*
X6859060Y-3472500I0J38100D01*
G01*
X3269500Y-5726000D02*
X3269060Y-5231080D01*
X5362750Y-3472740D02*
X5304560Y-3472500D01*
X1263644Y-2575000D02*
X1263644Y-1249920D01*
X4485156Y-1250000D02*
X5304560Y-1250000D01*
X1362704Y-3510520D02*
X1363500Y-3535500D01*
X5363000Y-3439480D02*
X5363000Y-2945080D01*
D12*
X1508763Y-6093076D02*
X1508763Y-5893076D01*
X1508763Y-5893076D02*
X1556382Y-5893076D01*
X1556382Y-5893076D02*
X1584953Y-5902600D01*
X1584953Y-5902600D02*
X1604001Y-5921648D01*
X1604001Y-5921648D02*
X1613525Y-5940695D01*
X1613525Y-5940695D02*
X1623049Y-5978790D01*
X1623049Y-5978790D02*
X1623049Y-6007362D01*
X1623049Y-6007362D02*
X1613525Y-6045457D01*
X1613525Y-6045457D02*
X1604001Y-6064505D01*
X1604001Y-6064505D02*
X1584953Y-6083552D01*
X1584953Y-6083552D02*
X1556382Y-6093076D01*
X1556382Y-6093076D02*
X1508763Y-6093076D01*
X1708763Y-6093076D02*
X1708763Y-5959743D01*
X1708763Y-5997838D02*
X1718287Y-5978790D01*
X1718287Y-5978790D02*
X1727811Y-5969267D01*
X1727811Y-5969267D02*
X1746858Y-5959743D01*
X1746858Y-5959743D02*
X1765906Y-5959743D01*
X1832572Y-6093076D02*
X1832572Y-5959743D01*
X1832572Y-5893076D02*
X1823049Y-5902600D01*
X1823049Y-5902600D02*
X1832572Y-5912124D01*
X1832572Y-5912124D02*
X1842096Y-5902600D01*
X1842096Y-5902600D02*
X1832572Y-5893076D01*
X1832572Y-5893076D02*
X1832572Y-5912124D01*
X1956382Y-6093076D02*
X1937334Y-6083552D01*
X1937334Y-6083552D02*
X1927811Y-6064505D01*
X1927811Y-6064505D02*
X1927811Y-5893076D01*
X2061144Y-6093076D02*
X2042096Y-6083552D01*
X2042096Y-6083552D02*
X2032572Y-6064505D01*
X2032572Y-6064505D02*
X2032572Y-5893076D01*
X2257334Y-6093076D02*
X2257334Y-5893076D01*
X2257334Y-5893076D02*
X2324001Y-6035933D01*
X2324001Y-6035933D02*
X2390668Y-5893076D01*
X2390668Y-5893076D02*
X2390668Y-6093076D01*
X2571620Y-6093076D02*
X2571620Y-5988314D01*
X2571620Y-5988314D02*
X2562096Y-5969267D01*
X2562096Y-5969267D02*
X2543049Y-5959743D01*
X2543049Y-5959743D02*
X2504953Y-5959743D01*
X2504953Y-5959743D02*
X2485906Y-5969267D01*
X2571620Y-6083552D02*
X2552573Y-6093076D01*
X2552573Y-6093076D02*
X2504953Y-6093076D01*
X2504953Y-6093076D02*
X2485906Y-6083552D01*
X2485906Y-6083552D02*
X2476382Y-6064505D01*
X2476382Y-6064505D02*
X2476382Y-6045457D01*
X2476382Y-6045457D02*
X2485906Y-6026409D01*
X2485906Y-6026409D02*
X2504953Y-6016886D01*
X2504953Y-6016886D02*
X2552573Y-6016886D01*
X2552573Y-6016886D02*
X2571620Y-6007362D01*
X2666858Y-5959743D02*
X2666858Y-6159743D01*
X2666858Y-5969267D02*
X2685906Y-5959743D01*
X2685906Y-5959743D02*
X2724001Y-5959743D01*
X2724001Y-5959743D02*
X2743049Y-5969267D01*
X2743049Y-5969267D02*
X2752573Y-5978790D01*
X2752573Y-5978790D02*
X2762096Y-5997838D01*
X2762096Y-5997838D02*
X2762096Y-6054981D01*
X2762096Y-6054981D02*
X2752573Y-6074028D01*
X2752573Y-6074028D02*
X2743049Y-6083552D01*
X2743049Y-6083552D02*
X2724001Y-6093076D01*
X2724001Y-6093076D02*
X2685906Y-6093076D01*
X2685906Y-6093076D02*
X2666858Y-6083552D01*
X2847811Y-6074028D02*
X2857334Y-6083552D01*
X2857334Y-6083552D02*
X2847811Y-6093076D01*
X2847811Y-6093076D02*
X2838287Y-6083552D01*
X2838287Y-6083552D02*
X2847811Y-6074028D01*
X2847811Y-6074028D02*
X2847811Y-6093076D01*
X2847811Y-5969267D02*
X2857334Y-5978790D01*
X2857334Y-5978790D02*
X2847811Y-5988314D01*
X2847811Y-5988314D02*
X2838287Y-5978790D01*
X2838287Y-5978790D02*
X2847811Y-5969267D01*
X2847811Y-5969267D02*
X2847811Y-5988314D01*
M02*
