%TF.GenerationSoftware,KiCad,Pcbnew,(7.0.0)*%
%TF.CreationDate,2023-04-13T19:08:04-05:00*%
%TF.ProjectId,Cookie_Mantis,436f6f6b-6965-45f4-9d61-6e7469732e6b,rev?*%
%TF.SameCoordinates,Original*%
%TF.FileFunction,Profile,NP*%
%FSLAX46Y46*%
G04 Gerber Fmt 4.6, Leading zero omitted, Abs format (unit mm)*
G04 Created by KiCad (PCBNEW (7.0.0)) date 2023-04-13 19:08:04*
%MOMM*%
%LPD*%
G01*
G04 APERTURE LIST*
%TA.AperFunction,Profile*%
%ADD10C,0.050000*%
%TD*%
G04 APERTURE END LIST*
D10*
X29423300Y-35105200D02*
X32296040Y-35105200D01*
X27224600Y-58486000D02*
G75*
G03*
X27605600Y-58105000I0J381000D01*
G01*
X33155000Y-34725000D02*
G75*
G03*
X33536000Y-35106000I380900J-100D01*
G01*
X34150000Y-35895000D02*
X41460560Y-35895000D01*
X32296040Y-35105140D02*
G75*
G03*
X32677040Y-34724200I60J380940D01*
G01*
X32685600Y-49130800D02*
X32685600Y-35880000D01*
X12645000Y-57774800D02*
X12645000Y-52830800D01*
X49560860Y-32309460D02*
X49560860Y-34725000D01*
X49575800Y-58120000D02*
G75*
G03*
X49956860Y-58501000I381000J0D01*
G01*
X13017440Y-35105200D02*
X13015000Y-35880000D01*
X47734600Y-35106000D02*
X45067600Y-35106000D01*
X45016560Y-35895000D02*
X53210600Y-35895000D01*
X33155000Y-34394800D02*
X32680000Y-34395000D01*
X33168560Y-29450849D02*
G75*
G03*
X33168560Y-25750751I0J1850049D01*
G01*
X49560900Y-34725000D02*
G75*
G03*
X49941860Y-35106000I381000J0D01*
G01*
X32677040Y-25749600D02*
G75*
G03*
X32677040Y-29450000I0J-1850200D01*
G01*
X29042300Y-34724200D02*
G75*
G03*
X29423300Y-35105200I381000J0D01*
G01*
X29042300Y-32308660D02*
X29042300Y-34724200D01*
X20935560Y-35880000D02*
G75*
G03*
X24491560Y-35880000I1778000J0D01*
G01*
X33170000Y-58120000D02*
G75*
G03*
X33551000Y-58501000I380900J-100D01*
G01*
X45082600Y-58501000D02*
X34160600Y-58501000D01*
X27216040Y-35105200D02*
X24549040Y-35105200D01*
X12636440Y-12499200D02*
X20927000Y-12499200D01*
X27216040Y-35105140D02*
G75*
G03*
X27597040Y-34724200I60J380940D01*
G01*
X29042302Y-32308660D02*
G75*
G03*
X27596466Y-32255359I-723902J-40D01*
G01*
X12636500Y-34724200D02*
G75*
G03*
X13017440Y-35105200I380900J-100D01*
G01*
X24557600Y-58486000D02*
X13635600Y-58486000D01*
X49575860Y-55704460D02*
X49575860Y-58120000D01*
X27605025Y-55636159D02*
X27605600Y-58105000D01*
X53210600Y-49145800D02*
X53210600Y-35895000D01*
X47749600Y-58501000D02*
X45082600Y-58501000D01*
X33175000Y-35895000D02*
X33535000Y-35895000D01*
X49560942Y-32309460D02*
G75*
G03*
X48115026Y-32256159I-723942J-40D01*
G01*
X27596465Y-32255359D02*
X27597040Y-34724200D01*
X47734600Y-35106000D02*
G75*
G03*
X48115600Y-34725000I0J381000D01*
G01*
X53195600Y-25750800D02*
X53195600Y-12500000D01*
X12645000Y-57774800D02*
X12645000Y-58105000D01*
X48130025Y-55651159D02*
X48130600Y-58120000D01*
X53210600Y-49145400D02*
G75*
G03*
X53210600Y-52845800I0J-1850200D01*
G01*
X24491560Y-35880000D02*
X32685600Y-35880000D01*
X47749600Y-58501000D02*
G75*
G03*
X48130600Y-58120000I0J381000D01*
G01*
X53195600Y-25750400D02*
G75*
G03*
X53195600Y-29450800I0J-1850200D01*
G01*
X24483000Y-12499200D02*
X32677040Y-12499200D01*
X49575942Y-55704460D02*
G75*
G03*
X48130026Y-55651159I-723942J-40D01*
G01*
X49956860Y-58501000D02*
X52829600Y-58501000D01*
X24549040Y-35105200D02*
X13627040Y-35105200D01*
X12645000Y-49130800D02*
X12645000Y-35880000D01*
X20927000Y-12499200D02*
G75*
G03*
X24483000Y-12499200I1778000J0D01*
G01*
X41445560Y-12500000D02*
G75*
G03*
X45001560Y-12500000I1778000J0D01*
G01*
X48115025Y-32256159D02*
X48115600Y-34725000D01*
X33535000Y-35090000D02*
X33535000Y-35895000D01*
X52829600Y-58501000D02*
G75*
G03*
X53210600Y-58120000I0J381000D01*
G01*
X29050800Y-58105000D02*
G75*
G03*
X29431860Y-58486000I381000J0D01*
G01*
X32680000Y-34395000D02*
X32677040Y-29450000D01*
X53210600Y-58120000D02*
X53210600Y-52845800D01*
X53195600Y-34725000D02*
X53195600Y-29450800D01*
X33155000Y-25750800D02*
X33155000Y-12500000D01*
X12636440Y-34394000D02*
X12636440Y-34724200D01*
X13026000Y-58486000D02*
X13635600Y-58486000D01*
X27224600Y-58486000D02*
X24557600Y-58486000D01*
X29050860Y-55689460D02*
X29050860Y-58105000D01*
X32677040Y-25750000D02*
X32677040Y-12499200D01*
X52814600Y-35106000D02*
G75*
G03*
X53195600Y-34725000I0J381000D01*
G01*
X33155000Y-34394800D02*
X33155000Y-29450800D01*
X33183560Y-52845849D02*
G75*
G03*
X33183560Y-49145751I0J1850049D01*
G01*
X34150000Y-35100000D02*
X34150000Y-35895000D01*
X41460560Y-35895000D02*
G75*
G03*
X45016560Y-35895000I1778000J0D01*
G01*
X12650000Y-29450049D02*
G75*
G03*
X12650000Y-25749951I0J1850049D01*
G01*
X33170000Y-58120000D02*
X32685600Y-58105000D01*
X12658560Y-52830849D02*
G75*
G03*
X12658560Y-49130751I0J1850049D01*
G01*
X32685600Y-49130400D02*
G75*
G03*
X32685600Y-52830800I0J-1850200D01*
G01*
X12645000Y-58105000D02*
G75*
G03*
X13026000Y-58486000I380900J-100D01*
G01*
X13624600Y-35880000D02*
X20935560Y-35880000D01*
X33535000Y-35895000D02*
X33535000Y-35895000D01*
X29050861Y-55689460D02*
G75*
G03*
X27605025Y-55636159I-723901J-20D01*
G01*
X33170000Y-49145800D02*
X33170000Y-35895000D01*
X33551000Y-58501000D02*
X34160600Y-58501000D01*
X33170000Y-57789800D02*
X33170000Y-52845800D01*
X33155000Y-34725000D02*
X32677040Y-34724200D01*
X49941860Y-35106000D02*
X52814600Y-35106000D01*
X45067600Y-35106000D02*
X34145600Y-35106000D01*
X29431860Y-58486000D02*
X32304600Y-58486000D01*
X33155000Y-12500000D02*
X41445560Y-12500000D01*
X13627040Y-35105200D02*
X13624600Y-35880000D01*
X32304600Y-58486000D02*
G75*
G03*
X32685600Y-58105000I0J381000D01*
G01*
X12636440Y-34394000D02*
X12636440Y-29450000D01*
X32685000Y-57790000D02*
X32685600Y-52830800D01*
X13015000Y-35880000D02*
X12645000Y-35880000D01*
X33170000Y-57789800D02*
X32685000Y-57790000D01*
X12636440Y-25750000D02*
X12636440Y-12499200D01*
X45001560Y-12500000D02*
X53195600Y-12500000D01*
M02*
