%TF.GenerationSoftware,KiCad,Pcbnew,(7.0.0)*%
%TF.CreationDate,2023-04-13T19:08:07-05:00*%
%TF.ProjectId,Cookie_Mantis,436f6f6b-6965-45f4-9d61-6e7469732e6b,rev?*%
%TF.SameCoordinates,Original*%
%TF.FileFunction,Drillmap*%
%TF.FilePolarity,Positive*%
%FSLAX45Y45*%
G04 Gerber Fmt 4.5, Leading zero omitted, Abs format (unit mm)*
G04 Created by KiCad (PCBNEW (7.0.0)) date 2023-04-13 19:08:07*
%MOMM*%
%LPD*%
G01*
G04 APERTURE LIST*
%ADD10C,0.050000*%
%ADD11C,0.200000*%
%ADD12C,0.015000*%
%ADD13C,0.040000*%
G04 APERTURE END LIST*
D10*
X2942330Y-3510520D02*
X3229604Y-3510520D01*
X2722460Y-5848600D02*
G75*
G03*
X2760560Y-5810500I0J38100D01*
G01*
X3315500Y-3472500D02*
G75*
G03*
X3353600Y-3510600I38090J-10D01*
G01*
X3415000Y-3589500D02*
X4146056Y-3589500D01*
X3229604Y-3510514D02*
G75*
G03*
X3267704Y-3472420I6J38094D01*
G01*
X3268560Y-4913080D02*
X3268560Y-3588000D01*
X1264500Y-5777480D02*
X1264500Y-5283080D01*
X4956086Y-3230946D02*
X4956086Y-3472500D01*
X4957580Y-5812000D02*
G75*
G03*
X4995686Y-5850100I38100J0D01*
G01*
X1301744Y-3510520D02*
X1301500Y-3588000D01*
X4773460Y-3510600D02*
X4506760Y-3510600D01*
X4501656Y-3589500D02*
X5321060Y-3589500D01*
X3315500Y-3439480D02*
X3268000Y-3439500D01*
X3316856Y-2945085D02*
G75*
G03*
X3316856Y-2575075I0J185005D01*
G01*
X4956090Y-3472500D02*
G75*
G03*
X4994186Y-3510600I38100J0D01*
G01*
X3267704Y-2574960D02*
G75*
G03*
X3267704Y-2945000I0J-185020D01*
G01*
X2904230Y-3472420D02*
G75*
G03*
X2942330Y-3510520I38100J0D01*
G01*
X2904230Y-3230866D02*
X2904230Y-3472420D01*
X2093556Y-3588000D02*
G75*
G03*
X2449156Y-3588000I177800J0D01*
G01*
X3317000Y-5812000D02*
G75*
G03*
X3355100Y-5850100I38090J-10D01*
G01*
X4508260Y-5850100D02*
X3416060Y-5850100D01*
X2721604Y-3510520D02*
X2454904Y-3510520D01*
X1263644Y-1249920D02*
X2092700Y-1249920D01*
X2721604Y-3510514D02*
G75*
G03*
X2759704Y-3472420I6J38094D01*
G01*
X2904230Y-3230866D02*
G75*
G03*
X2759647Y-3225536I-72390J-4D01*
G01*
X1263650Y-3472420D02*
G75*
G03*
X1301744Y-3510520I38090J-10D01*
G01*
X2455760Y-5848600D02*
X1363560Y-5848600D01*
X4957586Y-5570446D02*
X4957586Y-5812000D01*
X2760503Y-5563616D02*
X2760560Y-5810500D01*
X5321060Y-4914580D02*
X5321060Y-3589500D01*
X4774960Y-5850100D02*
X4508260Y-5850100D01*
X3317500Y-3589500D02*
X3353500Y-3589500D01*
X4956094Y-3230946D02*
G75*
G03*
X4811503Y-3225616I-72394J-4D01*
G01*
X2759647Y-3225536D02*
X2759704Y-3472420D01*
X4773460Y-3510600D02*
G75*
G03*
X4811560Y-3472500I0J38100D01*
G01*
X5319560Y-2575080D02*
X5319560Y-1250000D01*
X1264500Y-5777480D02*
X1264500Y-5810500D01*
X4813003Y-5565116D02*
X4813060Y-5812000D01*
X5321060Y-4914540D02*
G75*
G03*
X5321060Y-5284580I0J-185020D01*
G01*
X2449156Y-3588000D02*
X3268560Y-3588000D01*
X4774960Y-5850100D02*
G75*
G03*
X4813060Y-5812000I0J38100D01*
G01*
X5319560Y-2575040D02*
G75*
G03*
X5319560Y-2945080I0J-185020D01*
G01*
X2448300Y-1249920D02*
X3267704Y-1249920D01*
X4957594Y-5570446D02*
G75*
G03*
X4813003Y-5565116I-72394J-4D01*
G01*
X4995686Y-5850100D02*
X5282960Y-5850100D01*
X2454904Y-3510520D02*
X1362704Y-3510520D01*
X1264500Y-4913080D02*
X1264500Y-3588000D01*
X2092700Y-1249920D02*
G75*
G03*
X2448300Y-1249920I177800J0D01*
G01*
X4144556Y-1250000D02*
G75*
G03*
X4500156Y-1250000I177800J0D01*
G01*
X4811503Y-3225616D02*
X4811560Y-3472500D01*
X3353500Y-3509000D02*
X3353500Y-3589500D01*
X5282960Y-5850100D02*
G75*
G03*
X5321060Y-5812000I0J38100D01*
G01*
X2905080Y-5810500D02*
G75*
G03*
X2943186Y-5848600I38100J0D01*
G01*
X3268000Y-3439500D02*
X3267704Y-2945000D01*
X5321060Y-5812000D02*
X5321060Y-5284580D01*
X5319560Y-3472500D02*
X5319560Y-2945080D01*
X3315500Y-2575080D02*
X3315500Y-1250000D01*
X1263644Y-3439400D02*
X1263644Y-3472420D01*
X1302600Y-5848600D02*
X1363560Y-5848600D01*
X2722460Y-5848600D02*
X2455760Y-5848600D01*
X2905086Y-5568946D02*
X2905086Y-5810500D01*
X3267704Y-2575000D02*
X3267704Y-1249920D01*
X5281460Y-3510600D02*
G75*
G03*
X5319560Y-3472500I0J38100D01*
G01*
X3315500Y-3439480D02*
X3315500Y-2945080D01*
X3318356Y-5284585D02*
G75*
G03*
X3318356Y-4914575I0J185005D01*
G01*
X3415000Y-3510000D02*
X3415000Y-3589500D01*
X4146056Y-3589500D02*
G75*
G03*
X4501656Y-3589500I177800J0D01*
G01*
X1265000Y-2945005D02*
G75*
G03*
X1265000Y-2574995I0J185005D01*
G01*
X3317000Y-5812000D02*
X3268560Y-5810500D01*
X1265856Y-5283085D02*
G75*
G03*
X1265856Y-4913075I0J185005D01*
G01*
X3268560Y-4913040D02*
G75*
G03*
X3268560Y-5283080I0J-185020D01*
G01*
X1264500Y-5810500D02*
G75*
G03*
X1302600Y-5848600I38090J-10D01*
G01*
X1362460Y-3588000D02*
X2093556Y-3588000D01*
X3353500Y-3589500D02*
X3353500Y-3589500D01*
X2905086Y-5568946D02*
G75*
G03*
X2760503Y-5563616I-72390J-2D01*
G01*
X3317000Y-4914580D02*
X3317000Y-3589500D01*
X3355100Y-5850100D02*
X3416060Y-5850100D01*
X3317000Y-5778980D02*
X3317000Y-5284580D01*
X3315500Y-3472500D02*
X3267704Y-3472420D01*
X4994186Y-3510600D02*
X5281460Y-3510600D01*
X4506760Y-3510600D02*
X3414560Y-3510600D01*
X2943186Y-5848600D02*
X3230460Y-5848600D01*
X3315500Y-1250000D02*
X4144556Y-1250000D01*
X1362704Y-3510520D02*
X1362460Y-3588000D01*
X3230460Y-5848600D02*
G75*
G03*
X3268560Y-5810500I0J38100D01*
G01*
X1263644Y-3439400D02*
X1263644Y-2945000D01*
X3268500Y-5779000D02*
X3268560Y-5283080D01*
X1301500Y-3588000D02*
X1264500Y-3588000D01*
X3317000Y-5778980D02*
X3268500Y-5779000D01*
X1263644Y-2575000D02*
X1263644Y-1249920D01*
X4500156Y-1250000D02*
X5319560Y-1250000D01*
D11*
D12*
X1862500Y-2322500D02*
X1877500Y-2337500D01*
X1877500Y-2322500D02*
X1862500Y-2337500D01*
X1863356Y-4660580D02*
X1878356Y-4675580D01*
X1878356Y-4660580D02*
X1863356Y-4675580D01*
X2550870Y-2210870D02*
X2565870Y-2225870D01*
X2565870Y-2210870D02*
X2550870Y-2225870D01*
X2553356Y-4550678D02*
X2568356Y-4565678D01*
X2568356Y-4550678D02*
X2553356Y-4565678D01*
X3865856Y-4552178D02*
X3880856Y-4567178D01*
X3880856Y-4552178D02*
X3865856Y-4567178D01*
X3885356Y-2199580D02*
X3900356Y-2214580D01*
X3900356Y-2199580D02*
X3885356Y-2214580D01*
X4603330Y-2211554D02*
X4618330Y-2226554D01*
X4618330Y-2211554D02*
X4603330Y-2226554D01*
D13*
X1397104Y-3351000D02*
G75*
G03*
X1397104Y-3351000I-20000J0D01*
G01*
X1397960Y-5689080D02*
G75*
G03*
X1397960Y-5689080I-20000J0D01*
G01*
X1597104Y-3351000D02*
G75*
G03*
X1597104Y-3351000I-20000J0D01*
G01*
X1597960Y-5689080D02*
G75*
G03*
X1597960Y-5689080I-20000J0D01*
G01*
X1797104Y-3351000D02*
G75*
G03*
X1797104Y-3351000I-20000J0D01*
G01*
X1797960Y-5689080D02*
G75*
G03*
X1797960Y-5689080I-20000J0D01*
G01*
X1997104Y-3351000D02*
G75*
G03*
X1997104Y-3351000I-20000J0D01*
G01*
X1997960Y-5689080D02*
G75*
G03*
X1997960Y-5689080I-20000J0D01*
G01*
X2197104Y-3351000D02*
G75*
G03*
X2197104Y-3351000I-20000J0D01*
G01*
X2197960Y-5689080D02*
G75*
G03*
X2197960Y-5689080I-20000J0D01*
G01*
X2397104Y-3351000D02*
G75*
G03*
X2397104Y-3351000I-20000J0D01*
G01*
X2397960Y-5689080D02*
G75*
G03*
X2397960Y-5689080I-20000J0D01*
G01*
X2597104Y-3351000D02*
G75*
G03*
X2597104Y-3351000I-20000J0D01*
G01*
X2597960Y-5689080D02*
G75*
G03*
X2597960Y-5689080I-20000J0D01*
G01*
X2997104Y-3351000D02*
G75*
G03*
X2997104Y-3351000I-20000J0D01*
G01*
X2997960Y-5689080D02*
G75*
G03*
X2997960Y-5689080I-20000J0D01*
G01*
X3197104Y-3351000D02*
G75*
G03*
X3197104Y-3351000I-20000J0D01*
G01*
X3197960Y-5689080D02*
G75*
G03*
X3197960Y-5689080I-20000J0D01*
G01*
X3448960Y-3351080D02*
G75*
G03*
X3448960Y-3351080I-20000J0D01*
G01*
X3450460Y-5690580D02*
G75*
G03*
X3450460Y-5690580I-20000J0D01*
G01*
X3648960Y-3351080D02*
G75*
G03*
X3648960Y-3351080I-20000J0D01*
G01*
X3650460Y-5690580D02*
G75*
G03*
X3650460Y-5690580I-20000J0D01*
G01*
X3848960Y-3351080D02*
G75*
G03*
X3848960Y-3351080I-20000J0D01*
G01*
X3850460Y-5690580D02*
G75*
G03*
X3850460Y-5690580I-20000J0D01*
G01*
X4048960Y-3351080D02*
G75*
G03*
X4048960Y-3351080I-20000J0D01*
G01*
X4050460Y-5690580D02*
G75*
G03*
X4050460Y-5690580I-20000J0D01*
G01*
X4248960Y-3351080D02*
G75*
G03*
X4248960Y-3351080I-20000J0D01*
G01*
X4250460Y-5690580D02*
G75*
G03*
X4250460Y-5690580I-20000J0D01*
G01*
X4448960Y-3351080D02*
G75*
G03*
X4448960Y-3351080I-20000J0D01*
G01*
X4450460Y-5690580D02*
G75*
G03*
X4450460Y-5690580I-20000J0D01*
G01*
X4648960Y-3351080D02*
G75*
G03*
X4648960Y-3351080I-20000J0D01*
G01*
X4650460Y-5690580D02*
G75*
G03*
X4650460Y-5690580I-20000J0D01*
G01*
X5048960Y-3351080D02*
G75*
G03*
X5048960Y-3351080I-20000J0D01*
G01*
X5050460Y-5690580D02*
G75*
G03*
X5050460Y-5690580I-20000J0D01*
G01*
X5248960Y-3351080D02*
G75*
G03*
X5248960Y-3351080I-20000J0D01*
G01*
X5250460Y-5690580D02*
G75*
G03*
X5250460Y-5690580I-20000J0D01*
G01*
D11*
X1508763Y-6146076D02*
X1508763Y-5946076D01*
X1508763Y-5946076D02*
X1556382Y-5946076D01*
X1556382Y-5946076D02*
X1584953Y-5955600D01*
X1584953Y-5955600D02*
X1604001Y-5974648D01*
X1604001Y-5974648D02*
X1613525Y-5993695D01*
X1613525Y-5993695D02*
X1623049Y-6031790D01*
X1623049Y-6031790D02*
X1623049Y-6060362D01*
X1623049Y-6060362D02*
X1613525Y-6098457D01*
X1613525Y-6098457D02*
X1604001Y-6117505D01*
X1604001Y-6117505D02*
X1584953Y-6136552D01*
X1584953Y-6136552D02*
X1556382Y-6146076D01*
X1556382Y-6146076D02*
X1508763Y-6146076D01*
X1708763Y-6146076D02*
X1708763Y-6012743D01*
X1708763Y-6050838D02*
X1718287Y-6031790D01*
X1718287Y-6031790D02*
X1727811Y-6022267D01*
X1727811Y-6022267D02*
X1746858Y-6012743D01*
X1746858Y-6012743D02*
X1765906Y-6012743D01*
X1832572Y-6146076D02*
X1832572Y-6012743D01*
X1832572Y-5946076D02*
X1823049Y-5955600D01*
X1823049Y-5955600D02*
X1832572Y-5965124D01*
X1832572Y-5965124D02*
X1842096Y-5955600D01*
X1842096Y-5955600D02*
X1832572Y-5946076D01*
X1832572Y-5946076D02*
X1832572Y-5965124D01*
X1956382Y-6146076D02*
X1937334Y-6136552D01*
X1937334Y-6136552D02*
X1927811Y-6117505D01*
X1927811Y-6117505D02*
X1927811Y-5946076D01*
X2061144Y-6146076D02*
X2042096Y-6136552D01*
X2042096Y-6136552D02*
X2032572Y-6117505D01*
X2032572Y-6117505D02*
X2032572Y-5946076D01*
X2257334Y-6146076D02*
X2257334Y-5946076D01*
X2257334Y-5946076D02*
X2324001Y-6088933D01*
X2324001Y-6088933D02*
X2390668Y-5946076D01*
X2390668Y-5946076D02*
X2390668Y-6146076D01*
X2571620Y-6146076D02*
X2571620Y-6041314D01*
X2571620Y-6041314D02*
X2562096Y-6022267D01*
X2562096Y-6022267D02*
X2543049Y-6012743D01*
X2543049Y-6012743D02*
X2504953Y-6012743D01*
X2504953Y-6012743D02*
X2485906Y-6022267D01*
X2571620Y-6136552D02*
X2552573Y-6146076D01*
X2552573Y-6146076D02*
X2504953Y-6146076D01*
X2504953Y-6146076D02*
X2485906Y-6136552D01*
X2485906Y-6136552D02*
X2476382Y-6117505D01*
X2476382Y-6117505D02*
X2476382Y-6098457D01*
X2476382Y-6098457D02*
X2485906Y-6079409D01*
X2485906Y-6079409D02*
X2504953Y-6069886D01*
X2504953Y-6069886D02*
X2552573Y-6069886D01*
X2552573Y-6069886D02*
X2571620Y-6060362D01*
X2666858Y-6012743D02*
X2666858Y-6212743D01*
X2666858Y-6022267D02*
X2685906Y-6012743D01*
X2685906Y-6012743D02*
X2724001Y-6012743D01*
X2724001Y-6012743D02*
X2743049Y-6022267D01*
X2743049Y-6022267D02*
X2752573Y-6031790D01*
X2752573Y-6031790D02*
X2762096Y-6050838D01*
X2762096Y-6050838D02*
X2762096Y-6107981D01*
X2762096Y-6107981D02*
X2752573Y-6127028D01*
X2752573Y-6127028D02*
X2743049Y-6136552D01*
X2743049Y-6136552D02*
X2724001Y-6146076D01*
X2724001Y-6146076D02*
X2685906Y-6146076D01*
X2685906Y-6146076D02*
X2666858Y-6136552D01*
X2847811Y-6127028D02*
X2857334Y-6136552D01*
X2857334Y-6136552D02*
X2847811Y-6146076D01*
X2847811Y-6146076D02*
X2838287Y-6136552D01*
X2838287Y-6136552D02*
X2847811Y-6127028D01*
X2847811Y-6127028D02*
X2847811Y-6146076D01*
X2847811Y-6022267D02*
X2857334Y-6031790D01*
X2857334Y-6031790D02*
X2847811Y-6041314D01*
X2847811Y-6041314D02*
X2838287Y-6031790D01*
X2838287Y-6031790D02*
X2847811Y-6022267D01*
X2847811Y-6022267D02*
X2847811Y-6041314D01*
D12*
X1246144Y-6485100D02*
X1261144Y-6500100D01*
X1261144Y-6485100D02*
X1246144Y-6500100D01*
D11*
X1546858Y-6366076D02*
X1565906Y-6366076D01*
X1565906Y-6366076D02*
X1584953Y-6375600D01*
X1584953Y-6375600D02*
X1594477Y-6385124D01*
X1594477Y-6385124D02*
X1604001Y-6404171D01*
X1604001Y-6404171D02*
X1613525Y-6442267D01*
X1613525Y-6442267D02*
X1613525Y-6489886D01*
X1613525Y-6489886D02*
X1604001Y-6527981D01*
X1604001Y-6527981D02*
X1594477Y-6547028D01*
X1594477Y-6547028D02*
X1584953Y-6556552D01*
X1584953Y-6556552D02*
X1565906Y-6566076D01*
X1565906Y-6566076D02*
X1546858Y-6566076D01*
X1546858Y-6566076D02*
X1527811Y-6556552D01*
X1527811Y-6556552D02*
X1518287Y-6547028D01*
X1518287Y-6547028D02*
X1508763Y-6527981D01*
X1508763Y-6527981D02*
X1499239Y-6489886D01*
X1499239Y-6489886D02*
X1499239Y-6442267D01*
X1499239Y-6442267D02*
X1508763Y-6404171D01*
X1508763Y-6404171D02*
X1518287Y-6385124D01*
X1518287Y-6385124D02*
X1527811Y-6375600D01*
X1527811Y-6375600D02*
X1546858Y-6366076D01*
X1699239Y-6547028D02*
X1708763Y-6556552D01*
X1708763Y-6556552D02*
X1699239Y-6566076D01*
X1699239Y-6566076D02*
X1689715Y-6556552D01*
X1689715Y-6556552D02*
X1699239Y-6547028D01*
X1699239Y-6547028D02*
X1699239Y-6566076D01*
X1899239Y-6566076D02*
X1784953Y-6566076D01*
X1842096Y-6566076D02*
X1842096Y-6366076D01*
X1842096Y-6366076D02*
X1823049Y-6394648D01*
X1823049Y-6394648D02*
X1804001Y-6413695D01*
X1804001Y-6413695D02*
X1784953Y-6423219D01*
X2080192Y-6366076D02*
X1984953Y-6366076D01*
X1984953Y-6366076D02*
X1975430Y-6461314D01*
X1975430Y-6461314D02*
X1984953Y-6451790D01*
X1984953Y-6451790D02*
X2004001Y-6442267D01*
X2004001Y-6442267D02*
X2051620Y-6442267D01*
X2051620Y-6442267D02*
X2070668Y-6451790D01*
X2070668Y-6451790D02*
X2080192Y-6461314D01*
X2080192Y-6461314D02*
X2089715Y-6480362D01*
X2089715Y-6480362D02*
X2089715Y-6527981D01*
X2089715Y-6527981D02*
X2080192Y-6547028D01*
X2080192Y-6547028D02*
X2070668Y-6556552D01*
X2070668Y-6556552D02*
X2051620Y-6566076D01*
X2051620Y-6566076D02*
X2004001Y-6566076D01*
X2004001Y-6566076D02*
X1984953Y-6556552D01*
X1984953Y-6556552D02*
X1975430Y-6547028D01*
X2213525Y-6366076D02*
X2232573Y-6366076D01*
X2232573Y-6366076D02*
X2251620Y-6375600D01*
X2251620Y-6375600D02*
X2261144Y-6385124D01*
X2261144Y-6385124D02*
X2270668Y-6404171D01*
X2270668Y-6404171D02*
X2280192Y-6442267D01*
X2280192Y-6442267D02*
X2280192Y-6489886D01*
X2280192Y-6489886D02*
X2270668Y-6527981D01*
X2270668Y-6527981D02*
X2261144Y-6547028D01*
X2261144Y-6547028D02*
X2251620Y-6556552D01*
X2251620Y-6556552D02*
X2232573Y-6566076D01*
X2232573Y-6566076D02*
X2213525Y-6566076D01*
X2213525Y-6566076D02*
X2194477Y-6556552D01*
X2194477Y-6556552D02*
X2184954Y-6547028D01*
X2184954Y-6547028D02*
X2175430Y-6527981D01*
X2175430Y-6527981D02*
X2165906Y-6489886D01*
X2165906Y-6489886D02*
X2165906Y-6442267D01*
X2165906Y-6442267D02*
X2175430Y-6404171D01*
X2175430Y-6404171D02*
X2184954Y-6385124D01*
X2184954Y-6385124D02*
X2194477Y-6375600D01*
X2194477Y-6375600D02*
X2213525Y-6366076D01*
X2365906Y-6566076D02*
X2365906Y-6432743D01*
X2365906Y-6451790D02*
X2375430Y-6442267D01*
X2375430Y-6442267D02*
X2394477Y-6432743D01*
X2394477Y-6432743D02*
X2423049Y-6432743D01*
X2423049Y-6432743D02*
X2442096Y-6442267D01*
X2442096Y-6442267D02*
X2451620Y-6461314D01*
X2451620Y-6461314D02*
X2451620Y-6566076D01*
X2451620Y-6461314D02*
X2461144Y-6442267D01*
X2461144Y-6442267D02*
X2480192Y-6432743D01*
X2480192Y-6432743D02*
X2508763Y-6432743D01*
X2508763Y-6432743D02*
X2527811Y-6442267D01*
X2527811Y-6442267D02*
X2537335Y-6461314D01*
X2537335Y-6461314D02*
X2537335Y-6566076D01*
X2632573Y-6566076D02*
X2632573Y-6432743D01*
X2632573Y-6451790D02*
X2642096Y-6442267D01*
X2642096Y-6442267D02*
X2661144Y-6432743D01*
X2661144Y-6432743D02*
X2689716Y-6432743D01*
X2689716Y-6432743D02*
X2708763Y-6442267D01*
X2708763Y-6442267D02*
X2718287Y-6461314D01*
X2718287Y-6461314D02*
X2718287Y-6566076D01*
X2718287Y-6461314D02*
X2727811Y-6442267D01*
X2727811Y-6442267D02*
X2746858Y-6432743D01*
X2746858Y-6432743D02*
X2775430Y-6432743D01*
X2775430Y-6432743D02*
X2794477Y-6442267D01*
X2794477Y-6442267D02*
X2804001Y-6461314D01*
X2804001Y-6461314D02*
X2804001Y-6566076D01*
X3162096Y-6356552D02*
X2990668Y-6613695D01*
X3386858Y-6366076D02*
X3405906Y-6366076D01*
X3405906Y-6366076D02*
X3424954Y-6375600D01*
X3424954Y-6375600D02*
X3434477Y-6385124D01*
X3434477Y-6385124D02*
X3444001Y-6404171D01*
X3444001Y-6404171D02*
X3453525Y-6442267D01*
X3453525Y-6442267D02*
X3453525Y-6489886D01*
X3453525Y-6489886D02*
X3444001Y-6527981D01*
X3444001Y-6527981D02*
X3434477Y-6547028D01*
X3434477Y-6547028D02*
X3424954Y-6556552D01*
X3424954Y-6556552D02*
X3405906Y-6566076D01*
X3405906Y-6566076D02*
X3386858Y-6566076D01*
X3386858Y-6566076D02*
X3367811Y-6556552D01*
X3367811Y-6556552D02*
X3358287Y-6547028D01*
X3358287Y-6547028D02*
X3348763Y-6527981D01*
X3348763Y-6527981D02*
X3339239Y-6489886D01*
X3339239Y-6489886D02*
X3339239Y-6442267D01*
X3339239Y-6442267D02*
X3348763Y-6404171D01*
X3348763Y-6404171D02*
X3358287Y-6385124D01*
X3358287Y-6385124D02*
X3367811Y-6375600D01*
X3367811Y-6375600D02*
X3386858Y-6366076D01*
X3539239Y-6547028D02*
X3548763Y-6556552D01*
X3548763Y-6556552D02*
X3539239Y-6566076D01*
X3539239Y-6566076D02*
X3529715Y-6556552D01*
X3529715Y-6556552D02*
X3539239Y-6547028D01*
X3539239Y-6547028D02*
X3539239Y-6566076D01*
X3672573Y-6366076D02*
X3691620Y-6366076D01*
X3691620Y-6366076D02*
X3710668Y-6375600D01*
X3710668Y-6375600D02*
X3720192Y-6385124D01*
X3720192Y-6385124D02*
X3729715Y-6404171D01*
X3729715Y-6404171D02*
X3739239Y-6442267D01*
X3739239Y-6442267D02*
X3739239Y-6489886D01*
X3739239Y-6489886D02*
X3729715Y-6527981D01*
X3729715Y-6527981D02*
X3720192Y-6547028D01*
X3720192Y-6547028D02*
X3710668Y-6556552D01*
X3710668Y-6556552D02*
X3691620Y-6566076D01*
X3691620Y-6566076D02*
X3672573Y-6566076D01*
X3672573Y-6566076D02*
X3653525Y-6556552D01*
X3653525Y-6556552D02*
X3644001Y-6547028D01*
X3644001Y-6547028D02*
X3634477Y-6527981D01*
X3634477Y-6527981D02*
X3624954Y-6489886D01*
X3624954Y-6489886D02*
X3624954Y-6442267D01*
X3624954Y-6442267D02*
X3634477Y-6404171D01*
X3634477Y-6404171D02*
X3644001Y-6385124D01*
X3644001Y-6385124D02*
X3653525Y-6375600D01*
X3653525Y-6375600D02*
X3672573Y-6366076D01*
X3863049Y-6366076D02*
X3882096Y-6366076D01*
X3882096Y-6366076D02*
X3901144Y-6375600D01*
X3901144Y-6375600D02*
X3910668Y-6385124D01*
X3910668Y-6385124D02*
X3920192Y-6404171D01*
X3920192Y-6404171D02*
X3929715Y-6442267D01*
X3929715Y-6442267D02*
X3929715Y-6489886D01*
X3929715Y-6489886D02*
X3920192Y-6527981D01*
X3920192Y-6527981D02*
X3910668Y-6547028D01*
X3910668Y-6547028D02*
X3901144Y-6556552D01*
X3901144Y-6556552D02*
X3882096Y-6566076D01*
X3882096Y-6566076D02*
X3863049Y-6566076D01*
X3863049Y-6566076D02*
X3844001Y-6556552D01*
X3844001Y-6556552D02*
X3834477Y-6547028D01*
X3834477Y-6547028D02*
X3824954Y-6527981D01*
X3824954Y-6527981D02*
X3815430Y-6489886D01*
X3815430Y-6489886D02*
X3815430Y-6442267D01*
X3815430Y-6442267D02*
X3824954Y-6404171D01*
X3824954Y-6404171D02*
X3834477Y-6385124D01*
X3834477Y-6385124D02*
X3844001Y-6375600D01*
X3844001Y-6375600D02*
X3863049Y-6366076D01*
X4110668Y-6366076D02*
X4015430Y-6366076D01*
X4015430Y-6366076D02*
X4005906Y-6461314D01*
X4005906Y-6461314D02*
X4015430Y-6451790D01*
X4015430Y-6451790D02*
X4034477Y-6442267D01*
X4034477Y-6442267D02*
X4082096Y-6442267D01*
X4082096Y-6442267D02*
X4101144Y-6451790D01*
X4101144Y-6451790D02*
X4110668Y-6461314D01*
X4110668Y-6461314D02*
X4120192Y-6480362D01*
X4120192Y-6480362D02*
X4120192Y-6527981D01*
X4120192Y-6527981D02*
X4110668Y-6547028D01*
X4110668Y-6547028D02*
X4101144Y-6556552D01*
X4101144Y-6556552D02*
X4082096Y-6566076D01*
X4082096Y-6566076D02*
X4034477Y-6566076D01*
X4034477Y-6566076D02*
X4015430Y-6556552D01*
X4015430Y-6556552D02*
X4005906Y-6547028D01*
X4215430Y-6566076D02*
X4253525Y-6566076D01*
X4253525Y-6566076D02*
X4272573Y-6556552D01*
X4272573Y-6556552D02*
X4282097Y-6547028D01*
X4282097Y-6547028D02*
X4301144Y-6518457D01*
X4301144Y-6518457D02*
X4310668Y-6480362D01*
X4310668Y-6480362D02*
X4310668Y-6404171D01*
X4310668Y-6404171D02*
X4301144Y-6385124D01*
X4301144Y-6385124D02*
X4291620Y-6375600D01*
X4291620Y-6375600D02*
X4272573Y-6366076D01*
X4272573Y-6366076D02*
X4234477Y-6366076D01*
X4234477Y-6366076D02*
X4215430Y-6375600D01*
X4215430Y-6375600D02*
X4205906Y-6385124D01*
X4205906Y-6385124D02*
X4196382Y-6404171D01*
X4196382Y-6404171D02*
X4196382Y-6451790D01*
X4196382Y-6451790D02*
X4205906Y-6470838D01*
X4205906Y-6470838D02*
X4215430Y-6480362D01*
X4215430Y-6480362D02*
X4234477Y-6489886D01*
X4234477Y-6489886D02*
X4272573Y-6489886D01*
X4272573Y-6489886D02*
X4291620Y-6480362D01*
X4291620Y-6480362D02*
X4301144Y-6470838D01*
X4301144Y-6470838D02*
X4310668Y-6451790D01*
X4386858Y-6366076D02*
X4386858Y-6404171D01*
X4463049Y-6366076D02*
X4463049Y-6404171D01*
X4725906Y-6642267D02*
X4716382Y-6632743D01*
X4716382Y-6632743D02*
X4697335Y-6604171D01*
X4697335Y-6604171D02*
X4687811Y-6585124D01*
X4687811Y-6585124D02*
X4678287Y-6556552D01*
X4678287Y-6556552D02*
X4668763Y-6508933D01*
X4668763Y-6508933D02*
X4668763Y-6470838D01*
X4668763Y-6470838D02*
X4678287Y-6423219D01*
X4678287Y-6423219D02*
X4687811Y-6394648D01*
X4687811Y-6394648D02*
X4697335Y-6375600D01*
X4697335Y-6375600D02*
X4716382Y-6347028D01*
X4716382Y-6347028D02*
X4725906Y-6337505D01*
X4783049Y-6366076D02*
X4916382Y-6366076D01*
X4916382Y-6366076D02*
X4830668Y-6566076D01*
X5112573Y-6566076D02*
X5112573Y-6366076D01*
X5198287Y-6566076D02*
X5198287Y-6461314D01*
X5198287Y-6461314D02*
X5188763Y-6442267D01*
X5188763Y-6442267D02*
X5169716Y-6432743D01*
X5169716Y-6432743D02*
X5141144Y-6432743D01*
X5141144Y-6432743D02*
X5122097Y-6442267D01*
X5122097Y-6442267D02*
X5112573Y-6451790D01*
X5322097Y-6566076D02*
X5303049Y-6556552D01*
X5303049Y-6556552D02*
X5293525Y-6547028D01*
X5293525Y-6547028D02*
X5284001Y-6527981D01*
X5284001Y-6527981D02*
X5284001Y-6470838D01*
X5284001Y-6470838D02*
X5293525Y-6451790D01*
X5293525Y-6451790D02*
X5303049Y-6442267D01*
X5303049Y-6442267D02*
X5322097Y-6432743D01*
X5322097Y-6432743D02*
X5350668Y-6432743D01*
X5350668Y-6432743D02*
X5369716Y-6442267D01*
X5369716Y-6442267D02*
X5379239Y-6451790D01*
X5379239Y-6451790D02*
X5388763Y-6470838D01*
X5388763Y-6470838D02*
X5388763Y-6527981D01*
X5388763Y-6527981D02*
X5379239Y-6547028D01*
X5379239Y-6547028D02*
X5369716Y-6556552D01*
X5369716Y-6556552D02*
X5350668Y-6566076D01*
X5350668Y-6566076D02*
X5322097Y-6566076D01*
X5503049Y-6566076D02*
X5484001Y-6556552D01*
X5484001Y-6556552D02*
X5474478Y-6537505D01*
X5474478Y-6537505D02*
X5474478Y-6366076D01*
X5655430Y-6556552D02*
X5636382Y-6566076D01*
X5636382Y-6566076D02*
X5598287Y-6566076D01*
X5598287Y-6566076D02*
X5579239Y-6556552D01*
X5579239Y-6556552D02*
X5569716Y-6537505D01*
X5569716Y-6537505D02*
X5569716Y-6461314D01*
X5569716Y-6461314D02*
X5579239Y-6442267D01*
X5579239Y-6442267D02*
X5598287Y-6432743D01*
X5598287Y-6432743D02*
X5636382Y-6432743D01*
X5636382Y-6432743D02*
X5655430Y-6442267D01*
X5655430Y-6442267D02*
X5664954Y-6461314D01*
X5664954Y-6461314D02*
X5664954Y-6480362D01*
X5664954Y-6480362D02*
X5569716Y-6499409D01*
X5741144Y-6556552D02*
X5760192Y-6566076D01*
X5760192Y-6566076D02*
X5798287Y-6566076D01*
X5798287Y-6566076D02*
X5817335Y-6556552D01*
X5817335Y-6556552D02*
X5826858Y-6537505D01*
X5826858Y-6537505D02*
X5826858Y-6527981D01*
X5826858Y-6527981D02*
X5817335Y-6508933D01*
X5817335Y-6508933D02*
X5798287Y-6499409D01*
X5798287Y-6499409D02*
X5769716Y-6499409D01*
X5769716Y-6499409D02*
X5750668Y-6489886D01*
X5750668Y-6489886D02*
X5741144Y-6470838D01*
X5741144Y-6470838D02*
X5741144Y-6461314D01*
X5741144Y-6461314D02*
X5750668Y-6442267D01*
X5750668Y-6442267D02*
X5769716Y-6432743D01*
X5769716Y-6432743D02*
X5798287Y-6432743D01*
X5798287Y-6432743D02*
X5817335Y-6442267D01*
X5893525Y-6642267D02*
X5903049Y-6632743D01*
X5903049Y-6632743D02*
X5922097Y-6604171D01*
X5922097Y-6604171D02*
X5931620Y-6585124D01*
X5931620Y-6585124D02*
X5941144Y-6556552D01*
X5941144Y-6556552D02*
X5950668Y-6508933D01*
X5950668Y-6508933D02*
X5950668Y-6470838D01*
X5950668Y-6470838D02*
X5941144Y-6423219D01*
X5941144Y-6423219D02*
X5931620Y-6394648D01*
X5931620Y-6394648D02*
X5922097Y-6375600D01*
X5922097Y-6375600D02*
X5903049Y-6347028D01*
X5903049Y-6347028D02*
X5893525Y-6337505D01*
D13*
X1261144Y-6756600D02*
G75*
G03*
X1261144Y-6756600I-20000J0D01*
G01*
D11*
X1546858Y-6630076D02*
X1565906Y-6630076D01*
X1565906Y-6630076D02*
X1584953Y-6639600D01*
X1584953Y-6639600D02*
X1594477Y-6649124D01*
X1594477Y-6649124D02*
X1604001Y-6668171D01*
X1604001Y-6668171D02*
X1613525Y-6706267D01*
X1613525Y-6706267D02*
X1613525Y-6753886D01*
X1613525Y-6753886D02*
X1604001Y-6791981D01*
X1604001Y-6791981D02*
X1594477Y-6811028D01*
X1594477Y-6811028D02*
X1584953Y-6820552D01*
X1584953Y-6820552D02*
X1565906Y-6830076D01*
X1565906Y-6830076D02*
X1546858Y-6830076D01*
X1546858Y-6830076D02*
X1527811Y-6820552D01*
X1527811Y-6820552D02*
X1518287Y-6811028D01*
X1518287Y-6811028D02*
X1508763Y-6791981D01*
X1508763Y-6791981D02*
X1499239Y-6753886D01*
X1499239Y-6753886D02*
X1499239Y-6706267D01*
X1499239Y-6706267D02*
X1508763Y-6668171D01*
X1508763Y-6668171D02*
X1518287Y-6649124D01*
X1518287Y-6649124D02*
X1527811Y-6639600D01*
X1527811Y-6639600D02*
X1546858Y-6630076D01*
X1699239Y-6811028D02*
X1708763Y-6820552D01*
X1708763Y-6820552D02*
X1699239Y-6830076D01*
X1699239Y-6830076D02*
X1689715Y-6820552D01*
X1689715Y-6820552D02*
X1699239Y-6811028D01*
X1699239Y-6811028D02*
X1699239Y-6830076D01*
X1880192Y-6696743D02*
X1880192Y-6830076D01*
X1832572Y-6620552D02*
X1784953Y-6763409D01*
X1784953Y-6763409D02*
X1908763Y-6763409D01*
X2023049Y-6630076D02*
X2042096Y-6630076D01*
X2042096Y-6630076D02*
X2061144Y-6639600D01*
X2061144Y-6639600D02*
X2070668Y-6649124D01*
X2070668Y-6649124D02*
X2080192Y-6668171D01*
X2080192Y-6668171D02*
X2089715Y-6706267D01*
X2089715Y-6706267D02*
X2089715Y-6753886D01*
X2089715Y-6753886D02*
X2080192Y-6791981D01*
X2080192Y-6791981D02*
X2070668Y-6811028D01*
X2070668Y-6811028D02*
X2061144Y-6820552D01*
X2061144Y-6820552D02*
X2042096Y-6830076D01*
X2042096Y-6830076D02*
X2023049Y-6830076D01*
X2023049Y-6830076D02*
X2004001Y-6820552D01*
X2004001Y-6820552D02*
X1994477Y-6811028D01*
X1994477Y-6811028D02*
X1984953Y-6791981D01*
X1984953Y-6791981D02*
X1975430Y-6753886D01*
X1975430Y-6753886D02*
X1975430Y-6706267D01*
X1975430Y-6706267D02*
X1984953Y-6668171D01*
X1984953Y-6668171D02*
X1994477Y-6649124D01*
X1994477Y-6649124D02*
X2004001Y-6639600D01*
X2004001Y-6639600D02*
X2023049Y-6630076D01*
X2213525Y-6630076D02*
X2232573Y-6630076D01*
X2232573Y-6630076D02*
X2251620Y-6639600D01*
X2251620Y-6639600D02*
X2261144Y-6649124D01*
X2261144Y-6649124D02*
X2270668Y-6668171D01*
X2270668Y-6668171D02*
X2280192Y-6706267D01*
X2280192Y-6706267D02*
X2280192Y-6753886D01*
X2280192Y-6753886D02*
X2270668Y-6791981D01*
X2270668Y-6791981D02*
X2261144Y-6811028D01*
X2261144Y-6811028D02*
X2251620Y-6820552D01*
X2251620Y-6820552D02*
X2232573Y-6830076D01*
X2232573Y-6830076D02*
X2213525Y-6830076D01*
X2213525Y-6830076D02*
X2194477Y-6820552D01*
X2194477Y-6820552D02*
X2184954Y-6811028D01*
X2184954Y-6811028D02*
X2175430Y-6791981D01*
X2175430Y-6791981D02*
X2165906Y-6753886D01*
X2165906Y-6753886D02*
X2165906Y-6706267D01*
X2165906Y-6706267D02*
X2175430Y-6668171D01*
X2175430Y-6668171D02*
X2184954Y-6649124D01*
X2184954Y-6649124D02*
X2194477Y-6639600D01*
X2194477Y-6639600D02*
X2213525Y-6630076D01*
X2365906Y-6830076D02*
X2365906Y-6696743D01*
X2365906Y-6715790D02*
X2375430Y-6706267D01*
X2375430Y-6706267D02*
X2394477Y-6696743D01*
X2394477Y-6696743D02*
X2423049Y-6696743D01*
X2423049Y-6696743D02*
X2442096Y-6706267D01*
X2442096Y-6706267D02*
X2451620Y-6725314D01*
X2451620Y-6725314D02*
X2451620Y-6830076D01*
X2451620Y-6725314D02*
X2461144Y-6706267D01*
X2461144Y-6706267D02*
X2480192Y-6696743D01*
X2480192Y-6696743D02*
X2508763Y-6696743D01*
X2508763Y-6696743D02*
X2527811Y-6706267D01*
X2527811Y-6706267D02*
X2537335Y-6725314D01*
X2537335Y-6725314D02*
X2537335Y-6830076D01*
X2632573Y-6830076D02*
X2632573Y-6696743D01*
X2632573Y-6715790D02*
X2642096Y-6706267D01*
X2642096Y-6706267D02*
X2661144Y-6696743D01*
X2661144Y-6696743D02*
X2689716Y-6696743D01*
X2689716Y-6696743D02*
X2708763Y-6706267D01*
X2708763Y-6706267D02*
X2718287Y-6725314D01*
X2718287Y-6725314D02*
X2718287Y-6830076D01*
X2718287Y-6725314D02*
X2727811Y-6706267D01*
X2727811Y-6706267D02*
X2746858Y-6696743D01*
X2746858Y-6696743D02*
X2775430Y-6696743D01*
X2775430Y-6696743D02*
X2794477Y-6706267D01*
X2794477Y-6706267D02*
X2804001Y-6725314D01*
X2804001Y-6725314D02*
X2804001Y-6830076D01*
X3162096Y-6620552D02*
X2990668Y-6877695D01*
X3386858Y-6630076D02*
X3405906Y-6630076D01*
X3405906Y-6630076D02*
X3424954Y-6639600D01*
X3424954Y-6639600D02*
X3434477Y-6649124D01*
X3434477Y-6649124D02*
X3444001Y-6668171D01*
X3444001Y-6668171D02*
X3453525Y-6706267D01*
X3453525Y-6706267D02*
X3453525Y-6753886D01*
X3453525Y-6753886D02*
X3444001Y-6791981D01*
X3444001Y-6791981D02*
X3434477Y-6811028D01*
X3434477Y-6811028D02*
X3424954Y-6820552D01*
X3424954Y-6820552D02*
X3405906Y-6830076D01*
X3405906Y-6830076D02*
X3386858Y-6830076D01*
X3386858Y-6830076D02*
X3367811Y-6820552D01*
X3367811Y-6820552D02*
X3358287Y-6811028D01*
X3358287Y-6811028D02*
X3348763Y-6791981D01*
X3348763Y-6791981D02*
X3339239Y-6753886D01*
X3339239Y-6753886D02*
X3339239Y-6706267D01*
X3339239Y-6706267D02*
X3348763Y-6668171D01*
X3348763Y-6668171D02*
X3358287Y-6649124D01*
X3358287Y-6649124D02*
X3367811Y-6639600D01*
X3367811Y-6639600D02*
X3386858Y-6630076D01*
X3539239Y-6811028D02*
X3548763Y-6820552D01*
X3548763Y-6820552D02*
X3539239Y-6830076D01*
X3539239Y-6830076D02*
X3529715Y-6820552D01*
X3529715Y-6820552D02*
X3539239Y-6811028D01*
X3539239Y-6811028D02*
X3539239Y-6830076D01*
X3672573Y-6630076D02*
X3691620Y-6630076D01*
X3691620Y-6630076D02*
X3710668Y-6639600D01*
X3710668Y-6639600D02*
X3720192Y-6649124D01*
X3720192Y-6649124D02*
X3729715Y-6668171D01*
X3729715Y-6668171D02*
X3739239Y-6706267D01*
X3739239Y-6706267D02*
X3739239Y-6753886D01*
X3739239Y-6753886D02*
X3729715Y-6791981D01*
X3729715Y-6791981D02*
X3720192Y-6811028D01*
X3720192Y-6811028D02*
X3710668Y-6820552D01*
X3710668Y-6820552D02*
X3691620Y-6830076D01*
X3691620Y-6830076D02*
X3672573Y-6830076D01*
X3672573Y-6830076D02*
X3653525Y-6820552D01*
X3653525Y-6820552D02*
X3644001Y-6811028D01*
X3644001Y-6811028D02*
X3634477Y-6791981D01*
X3634477Y-6791981D02*
X3624954Y-6753886D01*
X3624954Y-6753886D02*
X3624954Y-6706267D01*
X3624954Y-6706267D02*
X3634477Y-6668171D01*
X3634477Y-6668171D02*
X3644001Y-6649124D01*
X3644001Y-6649124D02*
X3653525Y-6639600D01*
X3653525Y-6639600D02*
X3672573Y-6630076D01*
X3929715Y-6830076D02*
X3815430Y-6830076D01*
X3872573Y-6830076D02*
X3872573Y-6630076D01*
X3872573Y-6630076D02*
X3853525Y-6658648D01*
X3853525Y-6658648D02*
X3834477Y-6677695D01*
X3834477Y-6677695D02*
X3815430Y-6687219D01*
X4110668Y-6630076D02*
X4015430Y-6630076D01*
X4015430Y-6630076D02*
X4005906Y-6725314D01*
X4005906Y-6725314D02*
X4015430Y-6715790D01*
X4015430Y-6715790D02*
X4034477Y-6706267D01*
X4034477Y-6706267D02*
X4082096Y-6706267D01*
X4082096Y-6706267D02*
X4101144Y-6715790D01*
X4101144Y-6715790D02*
X4110668Y-6725314D01*
X4110668Y-6725314D02*
X4120192Y-6744362D01*
X4120192Y-6744362D02*
X4120192Y-6791981D01*
X4120192Y-6791981D02*
X4110668Y-6811028D01*
X4110668Y-6811028D02*
X4101144Y-6820552D01*
X4101144Y-6820552D02*
X4082096Y-6830076D01*
X4082096Y-6830076D02*
X4034477Y-6830076D01*
X4034477Y-6830076D02*
X4015430Y-6820552D01*
X4015430Y-6820552D02*
X4005906Y-6811028D01*
X4186858Y-6630076D02*
X4320192Y-6630076D01*
X4320192Y-6630076D02*
X4234477Y-6830076D01*
X4386858Y-6630076D02*
X4386858Y-6668171D01*
X4463049Y-6630076D02*
X4463049Y-6668171D01*
X4725906Y-6906267D02*
X4716382Y-6896743D01*
X4716382Y-6896743D02*
X4697335Y-6868171D01*
X4697335Y-6868171D02*
X4687811Y-6849124D01*
X4687811Y-6849124D02*
X4678287Y-6820552D01*
X4678287Y-6820552D02*
X4668763Y-6772933D01*
X4668763Y-6772933D02*
X4668763Y-6734838D01*
X4668763Y-6734838D02*
X4678287Y-6687219D01*
X4678287Y-6687219D02*
X4687811Y-6658648D01*
X4687811Y-6658648D02*
X4697335Y-6639600D01*
X4697335Y-6639600D02*
X4716382Y-6611028D01*
X4716382Y-6611028D02*
X4725906Y-6601505D01*
X4783049Y-6630076D02*
X4906858Y-6630076D01*
X4906858Y-6630076D02*
X4840192Y-6706267D01*
X4840192Y-6706267D02*
X4868763Y-6706267D01*
X4868763Y-6706267D02*
X4887811Y-6715790D01*
X4887811Y-6715790D02*
X4897335Y-6725314D01*
X4897335Y-6725314D02*
X4906858Y-6744362D01*
X4906858Y-6744362D02*
X4906858Y-6791981D01*
X4906858Y-6791981D02*
X4897335Y-6811028D01*
X4897335Y-6811028D02*
X4887811Y-6820552D01*
X4887811Y-6820552D02*
X4868763Y-6830076D01*
X4868763Y-6830076D02*
X4811620Y-6830076D01*
X4811620Y-6830076D02*
X4792573Y-6820552D01*
X4792573Y-6820552D02*
X4783049Y-6811028D01*
X5078287Y-6630076D02*
X5040192Y-6630076D01*
X5040192Y-6630076D02*
X5021144Y-6639600D01*
X5021144Y-6639600D02*
X5011620Y-6649124D01*
X5011620Y-6649124D02*
X4992573Y-6677695D01*
X4992573Y-6677695D02*
X4983049Y-6715790D01*
X4983049Y-6715790D02*
X4983049Y-6791981D01*
X4983049Y-6791981D02*
X4992573Y-6811028D01*
X4992573Y-6811028D02*
X5002097Y-6820552D01*
X5002097Y-6820552D02*
X5021144Y-6830076D01*
X5021144Y-6830076D02*
X5059239Y-6830076D01*
X5059239Y-6830076D02*
X5078287Y-6820552D01*
X5078287Y-6820552D02*
X5087811Y-6811028D01*
X5087811Y-6811028D02*
X5097335Y-6791981D01*
X5097335Y-6791981D02*
X5097335Y-6744362D01*
X5097335Y-6744362D02*
X5087811Y-6725314D01*
X5087811Y-6725314D02*
X5078287Y-6715790D01*
X5078287Y-6715790D02*
X5059239Y-6706267D01*
X5059239Y-6706267D02*
X5021144Y-6706267D01*
X5021144Y-6706267D02*
X5002097Y-6715790D01*
X5002097Y-6715790D02*
X4992573Y-6725314D01*
X4992573Y-6725314D02*
X4983049Y-6744362D01*
X5303049Y-6830076D02*
X5303049Y-6630076D01*
X5388763Y-6830076D02*
X5388763Y-6725314D01*
X5388763Y-6725314D02*
X5379239Y-6706267D01*
X5379239Y-6706267D02*
X5360192Y-6696743D01*
X5360192Y-6696743D02*
X5331620Y-6696743D01*
X5331620Y-6696743D02*
X5312573Y-6706267D01*
X5312573Y-6706267D02*
X5303049Y-6715790D01*
X5512573Y-6830076D02*
X5493525Y-6820552D01*
X5493525Y-6820552D02*
X5484001Y-6811028D01*
X5484001Y-6811028D02*
X5474478Y-6791981D01*
X5474478Y-6791981D02*
X5474478Y-6734838D01*
X5474478Y-6734838D02*
X5484001Y-6715790D01*
X5484001Y-6715790D02*
X5493525Y-6706267D01*
X5493525Y-6706267D02*
X5512573Y-6696743D01*
X5512573Y-6696743D02*
X5541144Y-6696743D01*
X5541144Y-6696743D02*
X5560192Y-6706267D01*
X5560192Y-6706267D02*
X5569716Y-6715790D01*
X5569716Y-6715790D02*
X5579239Y-6734838D01*
X5579239Y-6734838D02*
X5579239Y-6791981D01*
X5579239Y-6791981D02*
X5569716Y-6811028D01*
X5569716Y-6811028D02*
X5560192Y-6820552D01*
X5560192Y-6820552D02*
X5541144Y-6830076D01*
X5541144Y-6830076D02*
X5512573Y-6830076D01*
X5693525Y-6830076D02*
X5674477Y-6820552D01*
X5674477Y-6820552D02*
X5664954Y-6801505D01*
X5664954Y-6801505D02*
X5664954Y-6630076D01*
X5845906Y-6820552D02*
X5826858Y-6830076D01*
X5826858Y-6830076D02*
X5788763Y-6830076D01*
X5788763Y-6830076D02*
X5769716Y-6820552D01*
X5769716Y-6820552D02*
X5760192Y-6801505D01*
X5760192Y-6801505D02*
X5760192Y-6725314D01*
X5760192Y-6725314D02*
X5769716Y-6706267D01*
X5769716Y-6706267D02*
X5788763Y-6696743D01*
X5788763Y-6696743D02*
X5826858Y-6696743D01*
X5826858Y-6696743D02*
X5845906Y-6706267D01*
X5845906Y-6706267D02*
X5855430Y-6725314D01*
X5855430Y-6725314D02*
X5855430Y-6744362D01*
X5855430Y-6744362D02*
X5760192Y-6763409D01*
X5931620Y-6820552D02*
X5950668Y-6830076D01*
X5950668Y-6830076D02*
X5988763Y-6830076D01*
X5988763Y-6830076D02*
X6007811Y-6820552D01*
X6007811Y-6820552D02*
X6017335Y-6801505D01*
X6017335Y-6801505D02*
X6017335Y-6791981D01*
X6017335Y-6791981D02*
X6007811Y-6772933D01*
X6007811Y-6772933D02*
X5988763Y-6763409D01*
X5988763Y-6763409D02*
X5960192Y-6763409D01*
X5960192Y-6763409D02*
X5941144Y-6753886D01*
X5941144Y-6753886D02*
X5931620Y-6734838D01*
X5931620Y-6734838D02*
X5931620Y-6725314D01*
X5931620Y-6725314D02*
X5941144Y-6706267D01*
X5941144Y-6706267D02*
X5960192Y-6696743D01*
X5960192Y-6696743D02*
X5988763Y-6696743D01*
X5988763Y-6696743D02*
X6007811Y-6706267D01*
X6084001Y-6906267D02*
X6093525Y-6896743D01*
X6093525Y-6896743D02*
X6112573Y-6868171D01*
X6112573Y-6868171D02*
X6122097Y-6849124D01*
X6122097Y-6849124D02*
X6131620Y-6820552D01*
X6131620Y-6820552D02*
X6141144Y-6772933D01*
X6141144Y-6772933D02*
X6141144Y-6734838D01*
X6141144Y-6734838D02*
X6131620Y-6687219D01*
X6131620Y-6687219D02*
X6122097Y-6658648D01*
X6122097Y-6658648D02*
X6112573Y-6639600D01*
X6112573Y-6639600D02*
X6093525Y-6611028D01*
X6093525Y-6611028D02*
X6084001Y-6601505D01*
M02*
