%TF.GenerationSoftware,KiCad,Pcbnew,(7.0.0)*%
%TF.CreationDate,2023-04-13T19:08:07-05:00*%
%TF.ProjectId,Cookie_Mantis,436f6f6b-6965-45f4-9d61-6e7469732e6b,rev?*%
%TF.SameCoordinates,Original*%
%TF.FileFunction,Drillmap*%
%TF.FilePolarity,Positive*%
%FSLAX45Y45*%
G04 Gerber Fmt 4.5, Leading zero omitted, Abs format (unit mm)*
G04 Created by KiCad (PCBNEW (7.0.0)) date 2023-04-13 19:08:07*
%MOMM*%
%LPD*%
G01*
G04 APERTURE LIST*
%ADD10C,0.050000*%
%ADD11C,0.200000*%
G04 APERTURE END LIST*
D10*
X2942330Y-3510520D02*
X3229604Y-3510520D01*
X2722460Y-5848600D02*
G75*
G03*
X2760560Y-5810500I0J38100D01*
G01*
X3315500Y-3472500D02*
G75*
G03*
X3353600Y-3510600I38090J-10D01*
G01*
X3415000Y-3589500D02*
X4146056Y-3589500D01*
X3229604Y-3510514D02*
G75*
G03*
X3267704Y-3472420I6J38094D01*
G01*
X3268560Y-4913080D02*
X3268560Y-3588000D01*
X1264500Y-5777480D02*
X1264500Y-5283080D01*
X4956086Y-3230946D02*
X4956086Y-3472500D01*
X4957580Y-5812000D02*
G75*
G03*
X4995686Y-5850100I38100J0D01*
G01*
X1301744Y-3510520D02*
X1301500Y-3588000D01*
X4773460Y-3510600D02*
X4506760Y-3510600D01*
X4501656Y-3589500D02*
X5321060Y-3589500D01*
X3315500Y-3439480D02*
X3268000Y-3439500D01*
X3316856Y-2945085D02*
G75*
G03*
X3316856Y-2575075I0J185005D01*
G01*
X4956090Y-3472500D02*
G75*
G03*
X4994186Y-3510600I38100J0D01*
G01*
X3267704Y-2574960D02*
G75*
G03*
X3267704Y-2945000I0J-185020D01*
G01*
X2904230Y-3472420D02*
G75*
G03*
X2942330Y-3510520I38100J0D01*
G01*
X2904230Y-3230866D02*
X2904230Y-3472420D01*
X2093556Y-3588000D02*
G75*
G03*
X2449156Y-3588000I177800J0D01*
G01*
X3317000Y-5812000D02*
G75*
G03*
X3355100Y-5850100I38090J-10D01*
G01*
X4508260Y-5850100D02*
X3416060Y-5850100D01*
X2721604Y-3510520D02*
X2454904Y-3510520D01*
X1263644Y-1249920D02*
X2092700Y-1249920D01*
X2721604Y-3510514D02*
G75*
G03*
X2759704Y-3472420I6J38094D01*
G01*
X2904230Y-3230866D02*
G75*
G03*
X2759647Y-3225536I-72390J-4D01*
G01*
X1263650Y-3472420D02*
G75*
G03*
X1301744Y-3510520I38090J-10D01*
G01*
X2455760Y-5848600D02*
X1363560Y-5848600D01*
X4957586Y-5570446D02*
X4957586Y-5812000D01*
X2760503Y-5563616D02*
X2760560Y-5810500D01*
X5321060Y-4914580D02*
X5321060Y-3589500D01*
X4774960Y-5850100D02*
X4508260Y-5850100D01*
X3317500Y-3589500D02*
X3353500Y-3589500D01*
X4956094Y-3230946D02*
G75*
G03*
X4811503Y-3225616I-72394J-4D01*
G01*
X2759647Y-3225536D02*
X2759704Y-3472420D01*
X4773460Y-3510600D02*
G75*
G03*
X4811560Y-3472500I0J38100D01*
G01*
X5319560Y-2575080D02*
X5319560Y-1250000D01*
X1264500Y-5777480D02*
X1264500Y-5810500D01*
X4813003Y-5565116D02*
X4813060Y-5812000D01*
X5321060Y-4914540D02*
G75*
G03*
X5321060Y-5284580I0J-185020D01*
G01*
X2449156Y-3588000D02*
X3268560Y-3588000D01*
X4774960Y-5850100D02*
G75*
G03*
X4813060Y-5812000I0J38100D01*
G01*
X5319560Y-2575040D02*
G75*
G03*
X5319560Y-2945080I0J-185020D01*
G01*
X2448300Y-1249920D02*
X3267704Y-1249920D01*
X4957594Y-5570446D02*
G75*
G03*
X4813003Y-5565116I-72394J-4D01*
G01*
X4995686Y-5850100D02*
X5282960Y-5850100D01*
X2454904Y-3510520D02*
X1362704Y-3510520D01*
X1264500Y-4913080D02*
X1264500Y-3588000D01*
X2092700Y-1249920D02*
G75*
G03*
X2448300Y-1249920I177800J0D01*
G01*
X4144556Y-1250000D02*
G75*
G03*
X4500156Y-1250000I177800J0D01*
G01*
X4811503Y-3225616D02*
X4811560Y-3472500D01*
X3353500Y-3509000D02*
X3353500Y-3589500D01*
X5282960Y-5850100D02*
G75*
G03*
X5321060Y-5812000I0J38100D01*
G01*
X2905080Y-5810500D02*
G75*
G03*
X2943186Y-5848600I38100J0D01*
G01*
X3268000Y-3439500D02*
X3267704Y-2945000D01*
X5321060Y-5812000D02*
X5321060Y-5284580D01*
X5319560Y-3472500D02*
X5319560Y-2945080D01*
X3315500Y-2575080D02*
X3315500Y-1250000D01*
X1263644Y-3439400D02*
X1263644Y-3472420D01*
X1302600Y-5848600D02*
X1363560Y-5848600D01*
X2722460Y-5848600D02*
X2455760Y-5848600D01*
X2905086Y-5568946D02*
X2905086Y-5810500D01*
X3267704Y-2575000D02*
X3267704Y-1249920D01*
X5281460Y-3510600D02*
G75*
G03*
X5319560Y-3472500I0J38100D01*
G01*
X3315500Y-3439480D02*
X3315500Y-2945080D01*
X3318356Y-5284585D02*
G75*
G03*
X3318356Y-4914575I0J185005D01*
G01*
X3415000Y-3510000D02*
X3415000Y-3589500D01*
X4146056Y-3589500D02*
G75*
G03*
X4501656Y-3589500I177800J0D01*
G01*
X1265000Y-2945005D02*
G75*
G03*
X1265000Y-2574995I0J185005D01*
G01*
X3317000Y-5812000D02*
X3268560Y-5810500D01*
X1265856Y-5283085D02*
G75*
G03*
X1265856Y-4913075I0J185005D01*
G01*
X3268560Y-4913040D02*
G75*
G03*
X3268560Y-5283080I0J-185020D01*
G01*
X1264500Y-5810500D02*
G75*
G03*
X1302600Y-5848600I38090J-10D01*
G01*
X1362460Y-3588000D02*
X2093556Y-3588000D01*
X3353500Y-3589500D02*
X3353500Y-3589500D01*
X2905086Y-5568946D02*
G75*
G03*
X2760503Y-5563616I-72390J-2D01*
G01*
X3317000Y-4914580D02*
X3317000Y-3589500D01*
X3355100Y-5850100D02*
X3416060Y-5850100D01*
X3317000Y-5778980D02*
X3317000Y-5284580D01*
X3315500Y-3472500D02*
X3267704Y-3472420D01*
X4994186Y-3510600D02*
X5281460Y-3510600D01*
X4506760Y-3510600D02*
X3414560Y-3510600D01*
X2943186Y-5848600D02*
X3230460Y-5848600D01*
X3315500Y-1250000D02*
X4144556Y-1250000D01*
X1362704Y-3510520D02*
X1362460Y-3588000D01*
X3230460Y-5848600D02*
G75*
G03*
X3268560Y-5810500I0J38100D01*
G01*
X1263644Y-3439400D02*
X1263644Y-2945000D01*
X3268500Y-5779000D02*
X3268560Y-5283080D01*
X1301500Y-3588000D02*
X1264500Y-3588000D01*
X3317000Y-5778980D02*
X3268500Y-5779000D01*
X1263644Y-2575000D02*
X1263644Y-1249920D01*
X4500156Y-1250000D02*
X5319560Y-1250000D01*
D11*
X1508763Y-6146076D02*
X1508763Y-5946076D01*
X1508763Y-5946076D02*
X1556382Y-5946076D01*
X1556382Y-5946076D02*
X1584953Y-5955600D01*
X1584953Y-5955600D02*
X1604001Y-5974648D01*
X1604001Y-5974648D02*
X1613525Y-5993695D01*
X1613525Y-5993695D02*
X1623049Y-6031790D01*
X1623049Y-6031790D02*
X1623049Y-6060362D01*
X1623049Y-6060362D02*
X1613525Y-6098457D01*
X1613525Y-6098457D02*
X1604001Y-6117505D01*
X1604001Y-6117505D02*
X1584953Y-6136552D01*
X1584953Y-6136552D02*
X1556382Y-6146076D01*
X1556382Y-6146076D02*
X1508763Y-6146076D01*
X1708763Y-6146076D02*
X1708763Y-6012743D01*
X1708763Y-6050838D02*
X1718287Y-6031790D01*
X1718287Y-6031790D02*
X1727811Y-6022267D01*
X1727811Y-6022267D02*
X1746858Y-6012743D01*
X1746858Y-6012743D02*
X1765906Y-6012743D01*
X1832572Y-6146076D02*
X1832572Y-6012743D01*
X1832572Y-5946076D02*
X1823049Y-5955600D01*
X1823049Y-5955600D02*
X1832572Y-5965124D01*
X1832572Y-5965124D02*
X1842096Y-5955600D01*
X1842096Y-5955600D02*
X1832572Y-5946076D01*
X1832572Y-5946076D02*
X1832572Y-5965124D01*
X1956382Y-6146076D02*
X1937334Y-6136552D01*
X1937334Y-6136552D02*
X1927811Y-6117505D01*
X1927811Y-6117505D02*
X1927811Y-5946076D01*
X2061144Y-6146076D02*
X2042096Y-6136552D01*
X2042096Y-6136552D02*
X2032572Y-6117505D01*
X2032572Y-6117505D02*
X2032572Y-5946076D01*
X2257334Y-6146076D02*
X2257334Y-5946076D01*
X2257334Y-5946076D02*
X2324001Y-6088933D01*
X2324001Y-6088933D02*
X2390668Y-5946076D01*
X2390668Y-5946076D02*
X2390668Y-6146076D01*
X2571620Y-6146076D02*
X2571620Y-6041314D01*
X2571620Y-6041314D02*
X2562096Y-6022267D01*
X2562096Y-6022267D02*
X2543049Y-6012743D01*
X2543049Y-6012743D02*
X2504953Y-6012743D01*
X2504953Y-6012743D02*
X2485906Y-6022267D01*
X2571620Y-6136552D02*
X2552573Y-6146076D01*
X2552573Y-6146076D02*
X2504953Y-6146076D01*
X2504953Y-6146076D02*
X2485906Y-6136552D01*
X2485906Y-6136552D02*
X2476382Y-6117505D01*
X2476382Y-6117505D02*
X2476382Y-6098457D01*
X2476382Y-6098457D02*
X2485906Y-6079409D01*
X2485906Y-6079409D02*
X2504953Y-6069886D01*
X2504953Y-6069886D02*
X2552573Y-6069886D01*
X2552573Y-6069886D02*
X2571620Y-6060362D01*
X2666858Y-6012743D02*
X2666858Y-6212743D01*
X2666858Y-6022267D02*
X2685906Y-6012743D01*
X2685906Y-6012743D02*
X2724001Y-6012743D01*
X2724001Y-6012743D02*
X2743049Y-6022267D01*
X2743049Y-6022267D02*
X2752573Y-6031790D01*
X2752573Y-6031790D02*
X2762096Y-6050838D01*
X2762096Y-6050838D02*
X2762096Y-6107981D01*
X2762096Y-6107981D02*
X2752573Y-6127028D01*
X2752573Y-6127028D02*
X2743049Y-6136552D01*
X2743049Y-6136552D02*
X2724001Y-6146076D01*
X2724001Y-6146076D02*
X2685906Y-6146076D01*
X2685906Y-6146076D02*
X2666858Y-6136552D01*
X2847811Y-6127028D02*
X2857334Y-6136552D01*
X2857334Y-6136552D02*
X2847811Y-6146076D01*
X2847811Y-6146076D02*
X2838287Y-6136552D01*
X2838287Y-6136552D02*
X2847811Y-6127028D01*
X2847811Y-6127028D02*
X2847811Y-6146076D01*
X2847811Y-6022267D02*
X2857334Y-6031790D01*
X2857334Y-6031790D02*
X2847811Y-6041314D01*
X2847811Y-6041314D02*
X2838287Y-6031790D01*
X2838287Y-6031790D02*
X2847811Y-6022267D01*
X2847811Y-6022267D02*
X2847811Y-6041314D01*
M02*
